<svg width="28" height="28" viewBox="0 0 28 28" fill="none" xmlns="http://www.w3.org/2000/svg">
<g clip-path="url(#clip0_1603_7639)">
<path d="M27.3344 23.5104C27.3342 24.0103 27.2355 24.5053 27.044 24.9671C26.8524 25.4289 26.5718 25.8484 26.2182 26.2017C25.8645 26.5551 25.4447 26.8353 24.9827 27.0263C24.5207 27.2174 24.0257 27.3156 23.5257 27.3153H4.47617C3.46652 27.3158 2.49803 26.9152 1.78371 26.2016C1.06938 25.4881 0.667695 24.5201 0.666992 23.5104V4.48893C0.667836 3.47942 1.0696 2.51158 1.78393 1.79824C2.49825 1.08491 3.46666 0.684497 4.47617 0.68506H23.5257C24.0256 0.684711 24.5206 0.78283 24.9826 0.973811C25.4445 1.16479 25.8643 1.44489 26.2179 1.79812C26.5716 2.15135 26.8522 2.57079 27.0438 3.03248C27.2354 3.49417 27.3341 3.98908 27.3344 4.48893V23.5104Z" fill="#FFE400"/>
<path d="M19.72 16.6639C19.6005 15.7357 19.1364 14.8863 18.4199 14.2843C18.3139 14.1909 18.1988 14.104 18.0716 14.0006C18.1776 13.921 18.2656 13.8601 18.3478 13.7917C18.8635 13.3648 19.2619 12.8135 19.5053 12.1898C19.7358 11.6001 19.8089 10.9606 19.7174 10.334C19.616 9.57193 19.2792 8.8605 18.754 8.29902C18.3797 7.88221 17.9173 7.55401 17.4003 7.33824C16.8982 7.13496 16.3608 7.03314 15.8191 7.03866H9.74906C9.70721 7.03627 9.66525 7.03627 9.6234 7.03866C9.55683 7.04169 9.4941 7.07071 9.44869 7.11949C9.40328 7.16827 9.37882 7.23291 9.38056 7.29953C9.38056 7.34195 9.38056 7.38384 9.38056 7.42573V20.541C9.38056 20.6067 9.37684 20.673 9.38056 20.7387C9.38327 20.7931 9.4049 20.8448 9.44169 20.8849C9.47848 20.9249 9.52813 20.9509 9.58204 20.9583C9.62373 20.9633 9.66576 20.9649 9.70771 20.963H15.9941C16.6272 20.9655 17.2495 20.7991 17.7969 20.4811C18.579 20.0416 19.1826 19.3423 19.5032 18.5044C19.7346 17.9203 19.8093 17.2858 19.72 16.6639V16.6639ZM14.8891 17.1358H13.755V10.8791H14.8764C14.8764 10.8791 14.8721 10.8759 14.8764 10.8759V10.8791H14.8891V17.1358Z" fill="#1E1719"/>
</g>
<defs>
<clipPath id="clip0_1603_7639">
<rect width="26.6674" height="26.6308" fill="white" transform="translate(0.666992 0.685059)"/>
</clipPath>
</defs>
</svg>
