<svg width="30" height="24" viewBox="0 0 30 24" fill="none" xmlns="http://www.w3.org/2000/svg">
<g id="Frame 694">
<path id="Vector" d="M29.1603 12.283L28.9086 12.1091C28.4165 11.6251 27.8322 11.2639 27.1969 11.0509C26.5615 10.838 25.8907 10.7785 25.2318 10.8767C24.0848 10.9792 22.9795 11.3898 22.0164 12.0713V12.0108C22.0254 11.5355 22.0581 11.061 22.1142 10.5894C22.1562 10.098 22.2051 9.60652 22.2051 9.13776C22.2199 8.68896 22.151 8.24151 22.0024 7.82217C21.9846 7.77256 21.9526 7.73041 21.9111 7.70184C21.8696 7.67328 21.8208 7.65981 21.7717 7.6634C21.2472 7.71676 20.7406 7.89769 20.2898 8.19266L20.178 8.44973C20.1761 9.16925 20.1034 9.88651 19.9613 10.5894C19.9458 10.651 19.9271 10.7116 19.9053 10.7709C19.7307 12.5805 19.7307 14.4049 19.9053 16.2146C19.9053 16.3658 20.2059 16.6002 20.4156 16.6909C20.8959 16.7037 21.373 16.603 21.8137 16.3961H21.9744C22.0065 16.3915 22.0373 16.38 22.0651 16.3621C22.0929 16.3442 22.117 16.3204 22.136 16.2921C22.155 16.2638 22.1684 16.2316 22.1755 16.1974C22.1826 16.1633 22.1831 16.128 22.1771 16.0936V15.6475C22.3684 14.8714 22.7489 14.1652 23.2789 13.6026C23.8089 13.04 24.4689 12.6417 25.1899 12.4493C25.5502 12.365 25.9248 12.3848 26.2758 12.507C26.6268 12.6291 26.9418 12.8491 27.1891 13.1449C27.3491 13.8966 27.2312 14.6862 26.8605 15.3451C26.3384 16.2697 25.5276 16.9617 24.5748 17.2958C23.4551 17.7273 22.2659 17.9074 21.0797 17.825C21.0168 17.7872 19.7865 16.8875 19.7865 16.8875C18.6493 15.9481 17.4155 15.1539 16.1097 14.521C15.8096 14.3399 15.5284 14.1244 15.2709 13.8783L15.1521 13.7649C14.4531 13.1449 13.09 12.1772 12.0065 11.3984L11.4263 10.9674V10.8389C11.4263 10.8011 12.1253 10.3626 12.1253 10.3626C12.6569 10.0786 13.1545 9.7257 13.6073 9.31164L13.7401 9.22848L16.1027 7.77681C18.3675 6.431 20.9399 4.90374 22.289 3.39159L22.3519 3.15721V2.95305C22.432 2.67485 22.432 2.3769 22.3519 2.09871C22.343 2.05013 22.321 2.00549 22.2887 1.97049C22.2563 1.93548 22.2151 1.91169 22.1702 1.90212C21.1146 1.78871 19.7586 2.46918 18.5213 3.72426C18.2925 3.95211 18.0362 4.14539 17.7594 4.29886L17.5707 4.40472C16.1726 5.24397 13.1319 7.30806 11.5242 8.42705C11.6762 6.15878 11.9492 3.90191 12.342 1.66774L12.3001 1.40311L12.1323 1.07043L12.0065 0.828483C11.7645 0.700805 11.4856 0.681799 11.2306 0.775575L10.9091 0.904095L10.4827 1.07043C10.442 1.07978 10.4042 1.09985 10.3725 1.12888C10.3407 1.1579 10.3162 1.19497 10.3009 1.23677C9.43017 3.79312 8.90516 6.47204 8.74212 9.19067C7.56362 8.39083 6.34552 7.6614 5.09328 7.00562H5.0094C4.70327 6.92306 4.41406 6.77948 4.15661 6.58222L3.57642 6.17394L2.68169 5.55395L2.44403 5.49347C1.92276 5.67173 1.4595 6.00752 1.10891 6.46125C1.08223 6.50925 1.06776 6.56402 1.06697 6.62002C1.07352 6.69701 1.08758 6.77306 1.10891 6.84685L1.15086 7.04342L1.1928 7.16439C1.98556 7.88351 2.85643 8.49541 3.78613 8.98653L5.0094 9.68968L6.88975 10.7936L7.21129 11.0733L7.42798 11.2094H7.46992C6.96663 11.5647 4.05874 13.6742 4.05874 13.6742L2.22733 15.0351C1.89169 15.2341 1.54634 15.4133 1.1928 15.5719C0.852795 15.7007 0.56567 15.9551 0.381938 16.2902L0.333008 16.4036L0.381938 16.4792L0.521744 16.5926L0.703483 16.7212L0.906198 16.8648L1.08794 16.9026C1.66982 16.8173 2.23175 16.6147 2.7446 16.3053C3.54847 15.9197 5.72939 14.4983 6.66606 13.8935L7.0645 13.6288C7.25411 13.6011 7.4305 13.5084 7.56779 13.3642C7.8315 13.1534 8.11224 12.9686 8.4066 12.8123C8.4066 12.8123 8.56038 12.7215 8.69319 12.6459V12.7669C8.67688 15.1326 8.84995 17.4953 9.21047 19.8286V19.9043C9.42641 20.4225 9.58819 20.9652 9.69278 21.5222L10.0423 22.8076L10.1471 22.9286C10.5184 23.1691 10.9447 23.2922 11.3774 23.2839H11.4823L11.5452 23.1251C11.5797 22.9308 11.5961 22.7333 11.5941 22.5354C11.5941 22.301 11.5941 22.0439 11.5941 21.7264V21.2652C11.4613 19.1104 11.3355 15.9727 11.3355 13.9313V13.7649L13.1529 15.0049C15.6693 16.7665 19.444 19.4431 21.7717 20.1462C21.8295 20.1648 21.8908 20.167 21.9496 20.1524C22.0084 20.1378 22.0627 20.107 22.1072 20.063L22.4637 19.8211H22.5266C22.6052 19.7522 22.6677 19.6644 22.709 19.5645C22.7503 19.4647 22.7693 19.3557 22.7643 19.2465C24.7006 19.1482 27.4058 18.3392 28.8527 16.3734C29.3696 15.6609 29.6546 14.7839 29.6636 13.8783C29.6945 13.3264 29.5238 12.7834 29.1882 12.3662" fill="#FCAF17"/>
</g>
</svg>
