<svg width="30" height="30" viewBox="0 0 30 30" fill="none" xmlns="http://www.w3.org/2000/svg">
<g id="Frame" clip-path="url(#clip0_1603_9774)">
<path id="Vector" d="M29.4546 14.998C29.456 17.8692 28.6057 20.6762 27.0114 23.064C25.4171 25.4518 23.1504 27.3132 20.498 28.4125C17.8457 29.5119 14.9269 29.7998 12.1108 29.24C9.29476 28.6802 6.70801 27.2978 4.67779 25.2676C2.64758 23.2373 1.26513 20.6506 0.70532 17.8345C0.145509 15.0185 0.433497 12.0997 1.53285 9.44734C2.6322 6.79499 4.49351 4.52829 6.88133 2.93398C9.26916 1.33968 12.0762 0.489407 14.9474 0.490724C18.7944 0.492488 22.4833 2.0215 25.2036 4.74176C27.9239 7.46202 29.4529 11.151 29.4546 14.998V14.998Z" fill="white"/>
<path id="Vector_2" d="M14.9475 28.8196C17.6812 28.8196 20.3534 28.009 22.6263 26.4902C24.8993 24.9715 26.6708 22.8129 27.7169 20.2873C28.7631 17.7618 29.0368 14.9827 28.5035 12.3016C27.9702 9.62048 26.6538 7.15773 24.7208 5.22475C22.7878 3.29177 20.3251 1.9754 17.644 1.4421C14.9628 0.90879 12.1838 1.1825 9.65823 2.22862C7.13268 3.27474 4.97407 5.04628 3.45534 7.31922C1.93661 9.59216 1.12598 12.2644 1.12598 14.998C1.12598 18.6637 2.58218 22.1793 5.17422 24.7713C7.76626 27.3634 11.2818 28.8196 14.9475 28.8196V28.8196Z" fill="#0083CA"/>
<mask id="mask0_1603_9774" style="mask-type:alpha" maskUnits="userSpaceOnUse" x="1" y="1" width="28" height="28">
<path id="Vector_3" d="M14.9475 28.8196C17.6812 28.8196 20.3534 28.009 22.6263 26.4902C24.8993 24.9715 26.6708 22.8129 27.7169 20.2873C28.7631 17.7618 29.0368 14.9827 28.5035 12.3016C27.9702 9.62048 26.6538 7.15773 24.7208 5.22475C22.7878 3.29177 20.3251 1.9754 17.644 1.4421C14.9628 0.90879 12.1838 1.1825 9.65823 2.22862C7.13268 3.27474 4.97407 5.04628 3.45534 7.31922C1.93661 9.59216 1.12598 12.2644 1.12598 14.998C1.12598 18.6637 2.58218 22.1793 5.17422 24.7713C7.76626 27.3634 11.2818 28.8196 14.9475 28.8196V28.8196Z" fill="#0083CA"/>
</mask>
<g mask="url(#mask0_1603_9774)">
<g id="Group">
<path id="Vector_4" d="M14.9944 21.6756C21.0663 21.6756 26.2727 23.3667 28.503 25.7635C29.2744 24.0001 29.6711 22.0957 29.6681 20.171C29.6681 16.281 28.1229 12.5504 25.3723 9.79979C22.6216 7.04918 18.891 5.50391 15.0011 5.50391C11.1111 5.50391 7.3805 7.04918 4.62989 9.79979C1.87929 12.5504 0.333999 16.281 0.333999 20.171C0.33123 22.095 0.725621 23.9989 1.49246 25.7635C3.71616 23.3667 8.91587 21.6756 14.9944 21.6756Z" fill="#0083CA"/>
<path id="Vector_5" d="M14.9944 21.6895C21.053 21.6895 26.246 23.3672 28.4697 25.7507C29.2358 23.9999 29.6302 22.1092 29.6282 20.1981C29.6282 12.3353 23.0703 5.94385 14.9811 5.94385C6.8919 5.94385 0.333998 12.3353 0.333998 20.1981C0.331356 22.1092 0.725858 24.0001 1.49246 25.7507C3.74279 23.3672 8.91587 21.6895 14.9944 21.6895Z" fill="#0085CB"/>
<path id="Vector_6" d="M14.9942 21.7023C21.0328 21.7023 26.2126 23.3734 28.4296 25.7303C29.1947 23.9956 29.5893 22.1203 29.5881 20.2243C29.5881 12.4214 23.0435 6.06323 14.9942 6.06323C6.945 6.06323 0.400405 12.4281 0.400405 20.2243C0.397603 22.1204 0.792251 23.9961 1.55887 25.7303C3.76925 23.3734 8.94899 21.7023 14.9942 21.7023Z" fill="#0086CC"/>
<path id="Vector_7" d="M14.9879 21.7223C21.0131 21.7223 26.1862 23.3734 28.3966 25.7169C29.1581 24.0068 29.5528 22.1561 29.5551 20.2842C29.5551 12.5478 23.0305 6.21631 14.9945 6.21631C6.9586 6.21631 0.447301 12.5478 0.447301 20.2842C0.442982 22.1647 0.835467 24.025 1.5991 25.7435C3.79617 23.3734 8.96258 21.7223 14.9879 21.7223Z" fill="#0088CC"/>
<path id="Vector_8" d="M14.9876 21.7354C20.9796 21.7354 26.1527 23.3733 28.3564 25.6968C29.1186 23.9943 29.5111 22.1494 29.5082 20.284C29.5082 12.6076 23.0035 6.30273 14.9876 6.30273C6.97162 6.30273 0.473646 12.601 0.473646 20.284C0.470991 22.1487 0.861175 23.993 1.61878 25.6968C3.8225 23.3733 8.97561 21.7354 14.9876 21.7354Z" fill="#0089CD"/>
<path id="Vector_9" d="M14.9871 21.749C20.9791 21.749 26.1189 23.3735 28.3027 25.6771C29.0594 23.9894 29.4497 22.1604 29.4478 20.3109C29.4478 12.6944 22.9565 6.42944 14.9672 6.42944C6.97783 6.42944 0.493169 12.7011 0.493169 20.3109C0.491578 22.1597 0.879488 23.9881 1.63164 25.6771C3.84868 23.3735 8.99513 21.749 14.9871 21.749Z" fill="#008BCE"/>
<path id="Vector_10" d="M14.9881 21.7689C20.9801 21.7689 26.0933 23.3734 28.3036 25.6637C29.0595 23.9898 29.4499 22.1741 29.4488 20.3375C29.4488 12.7876 22.9774 6.55591 15.0081 6.55591C7.03874 6.55591 0.567384 12.7876 0.567384 20.3375C0.566611 22.1734 0.95463 23.9886 1.70588 25.6637C3.87631 23.3734 9.00944 21.7689 14.9881 21.7689Z" fill="#008DCF"/>
<path id="Vector_11" d="M14.9808 21.782C20.9728 21.782 26.0594 23.3799 28.2498 25.6435C29.0004 23.9846 29.3885 22.1847 29.3882 20.3639C29.3882 12.8806 22.9368 6.67554 14.9808 6.67554C7.02478 6.67554 0.58008 12.8806 0.58008 20.3639C0.579212 22.1848 0.967362 23.9848 1.71855 25.6435C3.9023 23.3799 9.02211 21.782 14.9808 21.782Z" fill="#008ED0"/>
<path id="Vector_12" d="M14.9809 21.7953C20.9263 21.7953 26.0328 23.3798 28.2099 25.6235C28.9641 23.9823 29.3526 22.1967 29.3484 20.3905C29.3484 12.9671 22.9103 6.802 14.9809 6.802C7.05153 6.802 0.620144 12.9738 0.620144 20.3905C0.616403 22.196 1.00246 23.981 1.75195 25.6235C3.92904 23.3798 9.03555 21.7953 14.9809 21.7953Z" fill="#0090D0"/>
<path id="Vector_13" d="M14.9808 21.8156C20.9062 21.8156 25.9994 23.3801 28.1765 25.6105C28.9246 23.9816 29.3108 22.2099 29.3084 20.4174C29.3084 13.0939 22.8903 6.92212 14.9808 6.92212C7.0714 6.92212 0.65332 13.0606 0.65332 20.4174C0.653443 22.2096 1.03947 23.9808 1.78515 25.6105C3.96224 23.3801 9.04876 21.8156 14.9808 21.8156Z" fill="#0092D1"/>
<path id="Vector_14" d="M14.9807 21.8289C20.8928 21.8289 25.9661 23.3802 28.1432 25.5905C28.8873 23.9768 29.2734 22.2211 29.275 20.4441C29.275 13.1205 22.8702 7.04199 14.9807 7.04199C7.09128 7.04199 0.686523 13.1538 0.686523 20.4441C0.686643 22.2213 1.07281 23.9773 1.81833 25.5905C3.98876 23.3802 9.06198 21.8289 14.9807 21.8289Z" fill="#0093D2"/>
<path id="Vector_15" d="M14.9742 21.8421C20.873 21.8421 25.9395 23.3867 28.1033 25.5704C28.8479 23.9733 29.2342 22.2327 29.2351 20.4706C29.2351 13.2402 22.8437 7.15503 14.9742 7.15503C7.10471 7.15503 0.726571 13.2336 0.726571 20.4706C0.724539 22.2323 1.1086 23.9731 1.85173 25.5704C4.01551 23.3867 9.07541 21.8421 14.9742 21.8421Z" fill="#0095D3"/>
<path id="Vector_16" d="M14.9751 21.8619C20.8539 21.8619 25.9071 23.3866 28.0709 25.557C28.8127 23.9734 29.1968 22.2459 29.1961 20.4971C29.1961 13.3333 22.8246 7.28809 14.9751 7.28809C7.12558 7.28809 0.76075 13.3333 0.76075 20.4971C0.758706 22.246 1.14291 23.9738 1.88591 25.557C4.04303 23.3866 9.08962 21.8619 14.9751 21.8619Z" fill="#0097D4"/>
<path id="Vector_17" d="M14.975 21.8752C20.8405 21.8752 25.8804 23.3865 28.0309 25.537C28.7717 23.9719 29.156 22.2619 29.156 20.5304C29.156 13.4265 22.8045 7.41455 14.975 7.41455C7.14547 7.41455 0.793946 13.4065 0.793946 20.5304C0.793372 22.262 1.17769 23.9721 1.91911 25.537C4.06957 23.3865 9.10285 21.8752 14.975 21.8752Z" fill="#0098D5"/>
<path id="Vector_18" d="M14.9675 21.8888C20.8196 21.8888 25.8463 23.3868 27.9967 25.5173C28.7321 23.9671 29.1141 22.273 29.1152 20.5573C29.1152 13.5133 22.777 7.53467 14.9675 7.53467C7.1579 7.53467 0.833008 13.5267 0.833008 20.5573C0.832593 22.2732 1.21471 23.9676 1.95153 25.5173C4.09533 23.3868 9.11528 21.8888 14.9675 21.8888Z" fill="#009AD5"/>
<path id="Vector_19" d="M14.9674 21.9021C20.7996 21.9021 25.8129 23.3934 27.9567 25.504C28.6911 23.9676 29.0732 22.2867 29.0752 20.5839C29.0752 13.6065 22.7569 7.66113 14.9674 7.66113C7.17777 7.66113 0.866211 13.6065 0.866211 20.5839C0.866582 22.2869 1.24879 23.9682 1.98471 25.504C4.12185 23.3934 9.12849 21.9021 14.9674 21.9021Z" fill="#009CD6"/>
<path id="Vector_20" d="M14.968 21.9219C20.7869 21.9219 25.7869 23.3932 27.924 25.4838C28.6532 23.9624 29.0331 22.2973 29.0359 20.6103C29.0359 13.6995 22.7309 7.78076 14.968 7.78076C7.20503 7.78076 0.926758 13.6995 0.926758 20.6103C0.927974 22.2983 1.31031 23.9642 2.04526 25.4838C4.14911 23.3932 9.14244 21.9219 14.968 21.9219Z" fill="#009ED7"/>
<path id="Vector_21" d="M14.968 21.9352C20.7669 21.9352 25.7536 23.3933 27.8841 25.4638C28.616 23.96 28.9962 22.3094 28.9959 20.6369C28.9959 13.7861 22.711 7.90063 14.968 7.90063C7.22501 7.90063 0.926765 13.7861 0.926765 20.6369C0.924842 22.3096 1.30515 23.9606 2.03862 25.4638C4.17577 23.3933 9.15577 21.9352 14.968 21.9352Z" fill="#00A0D8"/>
<path id="Vector_22" d="M14.9611 21.9486C20.7467 21.9486 25.7268 23.3934 27.8506 25.4506C28.5772 23.9594 28.9551 22.3225 28.9558 20.6637C28.9558 13.8794 22.6908 8.01392 14.9745 8.01392C7.25812 8.01392 0.993164 13.8661 0.993164 20.6637C0.993138 22.3226 1.3711 23.9596 2.09836 25.4506C4.20221 23.3934 9.16889 21.9486 14.9611 21.9486Z" fill="#00A1D9"/>
<path id="Vector_23" d="M14.9611 21.9685C20.7333 21.9685 25.6934 23.3999 27.8106 25.4305C28.5369 23.9558 28.915 22.3341 28.9158 20.6902C28.9158 13.9725 22.6641 8.14697 14.9344 8.14697C7.20477 8.14697 0.953125 13.9725 0.953125 20.6902C0.956208 22.3338 1.3342 23.955 2.05832 25.4305C4.25538 23.3999 9.18877 21.9685 14.9611 21.9685Z" fill="#00A3DA"/>
<path id="Vector_24" d="M14.9606 21.9819C20.7129 21.9819 25.6597 23.4 27.7768 25.4107C28.4958 23.9618 28.8738 22.3677 28.882 20.7503C28.882 14.0925 22.6437 8.30688 14.9606 8.30688C7.27757 8.30688 1.0459 14.0925 1.0459 20.7503C1.0518 22.3672 1.42756 23.9613 2.14443 25.4107C4.25494 23.4 9.20166 21.9819 14.9606 21.9819Z" fill="#00A5DB"/>
<path id="Vector_25" d="M14.9605 21.9952C20.6929 21.9952 25.613 23.4 27.7368 25.3973C28.463 23.9511 28.8415 22.3552 28.842 20.7369C28.842 14.1457 22.6236 8.38672 14.9605 8.38672C7.29744 8.38672 1.0791 14.1457 1.0791 20.7369C1.07902 22.3545 1.45509 23.95 2.17763 25.3973C4.25485 23.4 9.21488 21.9952 14.9605 21.9952Z" fill="#00A7DC"/>
<path id="Vector_26" d="M14.955 22.0153C20.6806 22.0153 25.6074 23.4001 27.7046 25.3775C28.4243 23.9506 28.8005 22.3751 28.8031 20.777C28.8031 14.2457 22.5981 8.52002 14.955 8.52002C7.31184 8.52002 1.12012 14.2457 1.12012 20.777C1.12043 22.3746 1.49433 23.9501 2.21198 25.3775C4.30918 23.4001 9.22928 22.0153 14.955 22.0153Z" fill="#00A9DD"/>
<path id="Vector_27" d="M14.9549 22.0284C20.6606 22.0284 25.574 23.4066 27.6646 25.3573C28.3842 23.947 28.7606 22.3867 28.7631 20.8034C28.7631 14.332 22.578 8.63965 14.9549 8.63965C7.33174 8.63965 1.15332 14.332 1.15332 20.8034C1.15597 22.3859 1.52996 23.9457 2.2452 25.3573C4.33574 23.4066 9.24252 22.0284 14.9549 22.0284Z" fill="#00ABDE"/>
<path id="Vector_28" d="M14.9541 22.0419C20.6465 22.0419 25.5399 23.4068 27.6038 25.3708C28.3175 23.9729 28.6915 22.4264 28.6957 20.8568C28.6957 14.4521 22.5306 8.79297 14.9274 8.79297C7.32427 8.79297 1.15918 14.4521 1.15918 20.8568C1.16959 22.4179 1.54583 23.9548 2.25771 25.3442C4.36822 23.4068 9.25503 22.0419 14.9541 22.0419Z" fill="#00ADDE"/>
<path id="Vector_29" d="M14.9484 22.0552C20.6275 22.0552 25.5076 23.3867 27.5982 25.3242C28.3145 23.9439 28.6889 22.4118 28.69 20.8568C28.69 14.5186 22.5383 8.8728 14.9551 8.8728C7.37187 8.8728 1.2334 14.5053 1.2334 20.8568C1.23479 22.411 1.60682 23.9425 2.31862 25.3242C4.39584 23.4067 9.26933 22.0552 14.9484 22.0552Z" fill="#00AFDF"/>
<path id="Vector_30" d="M14.9472 22.0751C20.6063 22.0751 25.4798 23.4066 27.557 25.3041C28.2679 23.9388 28.6401 22.4226 28.6422 20.8833C28.6422 14.605 22.5104 9.00586 14.9472 9.00586C7.38393 9.00586 1.25879 14.605 1.25879 20.8833C1.26012 22.4227 1.63237 23.9391 2.34401 25.3041C4.42123 23.4066 9.2814 22.0751 14.9472 22.0751Z" fill="#00B1E0"/>
<path id="Vector_31" d="M14.9481 22.0883C20.5938 22.0883 25.4474 23.4199 27.5179 25.2907C28.2285 23.9397 28.6009 22.4364 28.6031 20.9099C28.6031 14.6982 22.4913 9.13232 14.9481 9.13232C7.40481 9.13232 1.29297 14.6982 1.29297 20.9099C1.29441 22.4365 1.66684 23.94 2.37819 25.2907C4.44875 23.4132 9.29561 22.0883 14.9481 22.0883Z" fill="#00B3E1"/>
<path id="Vector_32" d="M14.9482 22.1017C20.574 22.1017 25.4208 23.4333 27.4847 25.2708C28.1902 23.9348 28.5604 22.4474 28.5633 20.9366C28.5633 14.7848 22.4648 9.2522 14.9482 9.2522C7.43153 9.2522 1.33301 14.7915 1.33301 20.9366C1.33595 22.4474 1.70612 23.9348 2.41158 25.2708C4.47549 23.4133 9.30902 22.1017 14.9482 22.1017Z" fill="#0DB5E2"/>
<path id="Vector_33" d="M14.9414 22.1216C20.5539 22.1216 25.3874 23.4132 27.4447 25.2508C28.1496 23.9314 28.52 22.4591 28.5233 20.9632C28.5233 14.878 22.4447 9.37866 14.9414 9.37866C7.43808 9.37866 1.36621 14.878 1.36621 20.9632C1.36949 22.4591 1.73983 23.9314 2.44477 25.2508C4.50202 23.4132 9.32223 22.1216 14.9414 22.1216Z" fill="#19B7E3"/>
<path id="Vector_34" d="M14.9413 22.135C20.5405 22.135 25.3541 23.4133 27.4113 25.2375C28.1145 23.9342 28.485 22.4774 28.4899 20.9965C28.4899 15.0045 22.4246 9.49854 14.9413 9.49854C7.45798 9.49854 1.39941 14.9712 1.39941 20.9965C1.4035 22.4775 1.77403 23.9345 2.47797 25.2375C4.52856 23.4133 9.33547 22.135 14.9413 22.135Z" fill="#21B9E4"/>
<path id="Vector_35" d="M14.9414 22.1483C20.5206 22.1483 25.3275 23.4199 27.3781 25.2175C28.0757 23.9291 28.4439 22.4882 28.45 21.0231C28.45 15.0311 22.3981 9.625 14.9414 9.625C7.48471 9.625 1.43945 15.0577 1.43945 21.0231C1.44244 22.4878 1.80844 23.9289 2.5047 25.2175C4.55529 23.4199 9.34888 22.1483 14.9414 22.1483Z" fill="#28BBE5"/>
<path id="Vector_36" d="M14.941 22.1816C20.5135 22.1816 25.3138 23.4466 27.3577 25.2308C28.0559 23.9523 28.4243 22.5198 28.4296 21.0631C28.4296 15.1443 22.391 9.74487 14.941 9.74487C7.49092 9.74487 1.45898 15.1576 1.45898 21.0631C1.46108 22.5194 1.82727 23.9521 2.52423 25.2308C4.56817 23.4466 9.36175 22.1816 14.941 22.1816Z" fill="#37BDE6"/>
<path id="Vector_37" d="M14.9413 22.2215C20.5072 22.2215 25.3008 23.4732 27.3381 25.2508C28.0373 23.9799 28.4059 22.5536 28.41 21.103C28.41 15.2242 22.378 9.84473 14.9413 9.84473C7.50458 9.84473 1.47266 15.2242 1.47266 21.103C1.47974 22.5524 1.84572 23.9774 2.5379 25.2508C4.58184 23.4732 9.36876 22.2215 14.9413 22.2215Z" fill="#43BFE6"/>
<path id="Vector_38" d="M14.9409 22.2815C20.5001 22.2815 25.2804 23.5265 27.3243 25.2908C28.0185 24.0302 28.3848 22.6154 28.3896 21.1763C28.3896 15.3308 22.3976 9.98462 14.9409 9.98462C7.48417 9.98462 1.49219 15.3108 1.49219 21.1763C1.49609 22.6155 1.86245 24.0306 2.55743 25.2908C4.59471 23.4999 9.37497 22.2815 14.9409 22.2815Z" fill="#4DC0E7"/>
<path id="Vector_39" d="M14.9414 22.2815C20.494 22.2815 25.2676 23.5198 27.3049 25.2708C28.0019 24.0207 28.3707 22.6142 28.3768 21.1829C28.3768 15.3774 22.3848 10.0645 14.9414 10.0645C7.49802 10.0645 1.5127 15.3907 1.5127 21.1829C1.5176 22.6127 1.8816 24.0184 2.57128 25.2708C4.60856 23.5265 9.38217 22.2815 14.9414 22.2815Z" fill="#56C2E8"/>
<path id="Vector_40" d="M14.941 22.3281C20.4869 22.3281 25.2539 23.5531 27.2911 25.2908C27.982 24.0506 28.3484 22.6559 28.3564 21.2362C28.3564 15.4706 22.3644 10.1843 14.941 10.1843C7.51755 10.1843 1.53223 15.4706 1.53223 21.2362C1.53406 22.6558 1.89844 24.0515 2.59081 25.2908C4.62143 23.5531 9.38838 22.3281 14.941 22.3281Z" fill="#5EC4E8"/>
<path id="Vector_41" d="M14.9413 22.3615C20.4739 22.3615 25.2409 23.5799 27.2715 25.3109C27.9651 24.079 28.3319 22.69 28.3368 21.2763C28.3368 15.5506 22.3448 10.2976 14.9413 10.2976C7.53789 10.2976 1.5459 15.5506 1.5459 21.2763C1.55171 22.689 1.91594 24.0772 2.60448 25.3109C4.64176 23.6131 9.3954 22.3615 14.9413 22.3615Z" fill="#65C6E9"/>
<path id="Vector_42" d="M14.9416 22.3947C20.4675 22.3947 25.2278 23.6065 27.2585 25.3242C27.9446 24.104 28.3089 22.7293 28.3171 21.3295C28.3171 15.6438 22.3251 10.4241 14.9416 10.4241C7.55813 10.4241 1.59277 15.6238 1.59277 21.3162C1.6001 22.7161 1.96445 24.091 2.65136 25.3108C4.65534 23.6131 9.40899 22.3947 14.9416 22.3947Z" fill="#6DC7EA"/>
<path id="Vector_43" d="M14.9416 22.428C20.4609 22.428 25.2145 23.633 27.2385 25.3374C27.9298 24.1194 28.2945 22.7433 28.2971 21.3428C28.2971 15.6903 22.3051 10.5039 14.9416 10.5039C7.5781 10.5039 1.59277 15.7103 1.59277 21.3627C1.593 22.7627 1.95537 24.1388 2.64469 25.3574C4.66865 23.613 9.41564 22.428 14.9416 22.428Z" fill="#74C9EA"/>
<path id="Vector_44" d="M14.9412 22.4678C20.4539 22.4678 25.2009 23.6596 27.2248 25.3573C27.909 24.1508 28.2734 22.7895 28.2834 21.4026C28.2834 15.7901 22.2914 10.637 14.9679 10.637C7.64434 10.637 1.65234 15.7967 1.65234 21.4026C1.65614 22.7895 2.01852 24.1518 2.70428 25.3573C4.68164 23.6596 9.42195 22.4678 14.9412 22.4678Z" fill="#7ACBEB"/>
<path id="Vector_45" d="M14.9407 22.5012C20.4467 22.5012 25.187 23.6863 27.2043 25.3707C27.8911 24.1774 28.2559 22.8261 28.2629 21.4493C28.2629 15.8767 22.2709 10.7502 14.9474 10.7502C7.62383 10.7502 1.63184 15.8767 1.63184 21.4493C1.63895 22.8252 2.00131 24.176 2.68377 25.3707C4.69442 23.6863 9.42808 22.5012 14.9407 22.5012Z" fill="#81CDEC"/>
<path id="Vector_46" d="M14.9411 22.5344C20.4405 22.5344 25.1742 23.7128 27.1915 25.3839C27.8732 24.1985 28.2356 22.8565 28.2434 21.4891C28.2434 15.9565 22.2847 10.8367 14.9278 10.8367C7.57101 10.8367 1.6123 15.9365 1.6123 21.4891C1.61608 22.857 1.9788 24.2001 2.66422 25.3839C4.70816 23.7128 9.43518 22.5344 14.9411 22.5344Z" fill="#87CFEC"/>
<path id="Vector_47" d="M14.9414 22.5745C20.4341 22.5745 25.1544 23.7396 27.1718 25.3974C27.8538 24.2218 28.2165 22.8883 28.2237 21.5292C28.2237 16.0365 22.2716 10.97 14.9414 10.97C7.61121 10.97 1.65918 16.0365 1.65918 21.5292C1.66403 22.8877 2.0244 24.2213 2.70445 25.3974C4.72176 23.7396 9.4421 22.5745 14.9414 22.5745Z" fill="#8ED1ED"/>
<path id="Vector_48" d="M14.941 22.6079C20.427 22.6079 25.1407 23.7663 27.158 25.4174C27.8382 24.2508 28.2009 22.9263 28.2099 21.5759C28.2099 16.1165 22.2645 11.0833 14.941 11.0833C7.61743 11.0833 1.67871 16.1232 1.67871 21.5759C1.68449 22.9259 2.04496 24.2506 2.72399 25.4174C4.73463 23.7663 9.45497 22.6079 14.941 22.6079Z" fill="#94D3EE"/>
<path id="Vector_49" d="M14.9412 22.641C20.4206 22.641 25.1276 23.7928 27.1383 25.4306C27.8309 24.2772 28.2053 22.9609 28.2235 21.6157C28.2235 16.1963 22.2848 11.1963 14.9745 11.1963C7.66431 11.1963 1.72559 16.2029 1.72559 21.6157C1.73133 22.9573 2.09195 24.2734 2.77084 25.4306C4.7482 23.7928 9.4619 22.641 14.9412 22.641Z" fill="#9AD5EF"/>
<path id="Vector_50" d="M14.9409 22.6741C20.4136 22.6741 25.114 23.8193 27.118 25.4438C27.7976 24.2988 28.1607 22.9937 28.1699 21.6622C28.1699 16.2827 22.2445 11.3093 14.9409 11.3093C7.63732 11.3093 1.71191 16.2827 1.71191 21.6622C1.71781 22.9932 2.07864 24.2986 2.75719 25.4438C4.76118 23.8193 9.46821 22.6741 14.9409 22.6741Z" fill="#A0D7F0"/>
<path id="Vector_51" d="M14.9414 22.7142C20.4075 22.7142 25.1012 23.846 27.1052 25.4572C27.7804 24.3203 28.1411 23.0244 28.1505 21.7022C28.1505 16.376 22.2317 11.4226 14.9414 11.4226C7.65118 11.4226 1.73242 16.3627 1.73242 21.7022C1.7362 23.0243 2.09489 24.3211 2.77103 25.4572C4.77502 23.846 9.4754 22.7142 14.9414 22.7142Z" fill="#A6D9F0"/>
<path id="Vector_52" d="M14.941 22.7476C20.4004 22.7476 25.0874 23.8727 27.0848 25.4773C27.7649 24.3495 28.1283 23.0592 28.1367 21.7423C28.1367 16.416 22.2246 11.5359 14.941 11.5359C7.65739 11.5359 1.75195 16.4493 1.75195 21.7423C1.75637 23.0579 2.11514 24.3482 2.79056 25.4773C4.78789 23.8727 9.48162 22.7476 14.941 22.7476Z" fill="#ACDCF1"/>
<path id="Vector_53" d="M14.9415 22.781C20.3876 22.781 25.0747 23.8995 27.072 25.4907C27.7458 24.3727 28.1068 23.0942 28.1173 21.7889C28.1173 16.5227 22.2118 11.6492 14.9415 11.6492C7.67124 11.6492 1.77246 16.5293 1.77246 21.7889C1.77821 23.0931 2.13466 24.3717 2.80443 25.4907C4.80842 23.8995 9.48881 22.781 14.9415 22.781Z" fill="#B2DEF2"/>
<path id="Vector_54" d="M14.9409 22.8141C20.3803 22.8141 25.0607 23.926 27.0514 25.4772C27.7252 24.369 28.0864 23.0991 28.0966 21.8021C28.0966 16.5824 22.1979 11.7356 14.9409 11.7356C7.68393 11.7356 1.78516 16.5824 1.78516 21.8021C1.78907 23.0991 2.14828 24.3701 2.82377 25.4772C4.8211 23.926 9.5015 22.8141 14.9409 22.8141Z" fill="#B8E0F3"/>
<path id="Vector_55" d="M14.9414 22.8541C20.3742 22.8541 25.0479 23.9526 27.0386 25.5172C27.7082 24.4173 28.0671 23.1564 28.0772 21.8687C28.0772 16.6823 22.1917 11.8821 14.9414 11.8821C7.69112 11.8821 1.80566 16.6956 1.80566 21.8687C1.81138 23.157 2.17064 24.419 2.84427 25.5172C4.83495 23.9526 9.50869 22.8541 14.9414 22.8541Z" fill="#BDE2F4"/>
<path id="Vector_56" d="M14.941 22.8875C20.3671 22.8875 25.0342 23.9793 27.0182 25.5506C27.6884 24.4607 28.0476 23.2082 28.0568 21.9288C28.0568 16.7823 22.178 11.9954 14.941 11.9954C7.70399 11.9954 1.8252 16.789 1.8252 21.9288C1.83105 23.2077 2.18801 24.4606 2.85714 25.5506C4.84781 23.9793 9.51491 22.8875 14.941 22.8875Z" fill="#C3E5F5"/>
<path id="Vector_57" d="M14.9405 22.9474C20.36 22.9474 25.0138 24.0326 27.0044 25.5772C27.6716 24.4957 28.0307 23.2526 28.043 21.982C28.043 16.8755 22.1709 12.1218 14.9405 12.1218C7.71021 12.1218 1.84473 16.8821 1.84473 21.982C1.84831 23.252 2.20317 24.4963 2.87003 25.5772C4.8607 24.0059 9.52112 22.9474 14.9405 22.9474Z" fill="#C9E7F5"/>
<path id="Vector_58" d="M14.9409 22.9474C20.3537 22.9474 25.0008 24.0193 26.9848 25.5506C27.6514 24.4811 28.0108 23.2488 28.0234 21.9886C28.0234 16.9154 22.1579 12.1951 14.9409 12.1951C7.72389 12.1951 1.8584 16.9554 1.8584 22.002C1.86456 23.2621 2.22194 24.4956 2.89036 25.5639C4.87438 24.0326 9.52814 22.9474 14.9409 22.9474Z" fill="#CEE9F6"/>
<path id="Vector_59" d="M14.9405 22.9939C20.3466 22.9939 24.987 24.0592 26.9711 25.5838C27.6347 24.5207 27.9918 23.295 28.003 22.0419C28.003 17.0153 22.1508 12.3215 14.9405 12.3215C7.7301 12.3215 1.87793 17.0153 1.87793 22.0419C1.88363 23.3061 2.24594 24.543 2.9232 25.6104C4.92053 24.0592 9.53436 22.9939 14.9405 22.9939Z" fill="#D4ECF7"/>
<path id="Vector_60" d="M14.9413 23.0271C20.3407 23.0271 24.9745 24.0857 26.9252 25.597C27.59 24.5467 27.9475 23.3313 27.9572 22.0883C27.9572 17.095 22.1117 12.4346 14.9146 12.4346C7.71759 12.4346 1.87207 17.095 1.87207 22.0883C1.88238 23.3382 2.24714 24.5595 2.92399 25.6103C4.92132 24.0857 9.58175 23.0271 14.9413 23.0271Z" fill="#DAEEF8"/>
<path id="Vector_61" d="M14.9413 23.0605C20.3341 23.0605 24.9613 24.1124 26.9253 25.6104C27.5903 24.5697 27.9501 23.3633 27.9639 22.1284C27.9639 17.175 22.1184 12.5479 14.9347 12.5479C7.75097 12.5479 1.91211 17.2083 1.91211 22.1284C1.9169 23.3609 2.26752 24.5673 2.92408 25.6104C4.92141 24.1124 9.58184 23.0605 14.9413 23.0605Z" fill="#DFF1F9"/>
<path id="Vector_62" d="M14.9411 23.1003C20.3272 23.1003 24.9277 24.1389 26.9251 25.6236C27.5885 24.5924 27.9463 23.3943 27.957 22.1682C27.957 17.2547 22.1248 12.6609 14.9478 12.6609C7.77069 12.6609 1.93848 17.2614 1.93848 22.1682C1.94354 23.3942 2.29932 24.5932 2.96378 25.6236C4.92116 24.1389 9.58159 23.1003 14.9411 23.1003Z" fill="#E5F3FA"/>
<path id="Vector_63" d="M14.9412 23.1337C20.3207 23.1337 24.9278 24.1656 26.9252 25.6436C27.5865 24.6213 27.9443 23.4324 27.9571 22.2149C27.9571 17.3414 22.1316 12.7742 14.9678 12.7742C7.80407 12.7742 1.97852 17.3414 1.97852 22.2149C1.98665 23.4312 2.33989 24.6202 2.99715 25.6436C4.92125 24.1656 9.58169 23.1337 14.9412 23.1337Z" fill="#EBF6FB"/>
<path id="Vector_64" d="M14.941 23.167C20.3138 23.167 24.9277 24.1923 26.885 25.6571C27.5418 24.6429 27.8974 23.4631 27.9103 22.2549C27.9103 17.4214 22.0981 12.8875 14.941 12.8875C7.7839 12.8875 1.97168 17.4214 1.97168 22.2816C1.97898 23.4897 2.33249 24.6704 2.99032 25.6837C4.95436 24.1923 9.5815 23.167 14.941 23.167Z" fill="#F1F8FD"/>
<path id="Vector_65" d="M14.9406 23.2003C20.3067 23.2003 24.9272 24.219 26.8646 25.6704C27.5268 24.6637 27.883 23.4865 27.8899 22.2816C27.8899 17.4813 22.0843 12.9607 14.9406 12.9607C7.79677 12.9607 1.99121 17.468 1.99121 22.2816C1.99728 23.4785 2.34866 24.6483 3.00318 25.6504C4.97388 24.219 9.58105 23.2003 14.9406 23.2003Z" fill="#F7FBFE"/>
<path id="Vector_66" d="M14.9409 23.2403C20.2671 23.2403 24.8876 24.2456 26.8517 25.6903C27.5033 24.7009 27.859 23.546 27.877 22.3615C27.877 17.6012 22.0781 13.1338 14.9409 13.1338C7.80379 13.1338 2.00488 17.6078 2.00488 22.3615C2.01721 23.546 2.37089 24.7018 3.02352 25.6903C4.98756 24.2789 9.58142 23.2403 14.9409 23.2403Z" fill="white"/>
</g>
<path id="Vector_67" d="M14.9398 18.4869C10.6307 18.4472 6.34842 19.1684 2.29004 20.6174C3.37689 23.0583 5.14797 25.1319 7.3889 26.5872C9.62982 28.0424 12.2445 28.8169 14.9165 28.8169C17.5885 28.8169 20.2032 28.0424 22.4441 26.5872C24.685 25.1319 26.4561 23.0583 27.543 20.6174C23.4998 19.1719 19.2334 18.4507 14.9398 18.4869V18.4869Z" fill="#0083CA"/>
</g>
</g>
<defs>
<clipPath id="clip0_1603_9774">
<rect width="29.3341" height="29.0212" fill="white" transform="translate(0.333008 0.490723)"/>
</clipPath>
</defs>
</svg>
