<svg width="22" height="28" viewBox="0 0 22 28" fill="none" xmlns="http://www.w3.org/2000/svg">
<g id="Frame" clip-path="url(#clip0_1603_6797)">
<path id="Vector" d="M16.1972 0.826172L11.0004 3.43973L5.80371 0.826172L11.0004 10.703L16.1972 0.826172Z" fill="#FFB71B"/>
<path id="Vector_2" d="M18.0509 8.42622L21.7585 6.87629V1.64917L15.3158 4.41469L11.7297 11.1613C13.1093 11.3204 14.3758 12.001 15.2697 13.0638C16.1636 14.1265 16.6172 15.4909 16.5376 16.8774C16.4579 18.2638 15.8511 19.5673 14.8413 20.5207C13.8316 21.4741 12.4954 22.0053 11.1067 22.0053C9.71799 22.0053 8.38186 21.4741 7.37211 20.5207C6.36237 19.5673 5.75549 18.2638 5.67584 16.8774C5.59618 15.4909 6.04973 14.1265 6.94364 13.0638C7.83755 12.001 9.10407 11.3204 10.4837 11.1613L6.89764 4.41469L0.485352 1.64917V6.87629L4.25371 8.42622C2.61935 9.8548 1.45979 11.748 0.929778 13.853C0.399767 15.958 0.524516 18.1746 1.28749 20.2068C2.05046 22.239 3.41529 23.9901 5.19969 25.2261C6.98409 26.4622 9.10313 27.1245 11.2738 27.1245C13.4445 27.1245 15.5636 26.4622 17.348 25.2261C19.1324 23.9901 20.4972 22.239 21.2602 20.2068C22.0232 18.1746 22.148 15.958 21.618 13.853C21.088 11.748 19.9283 9.8548 18.294 8.42622H18.0509Z" fill="#FFB71B"/>
</g>
<defs>
<clipPath id="clip0_1603_6797">
<rect width="21.3339" height="26.3483" fill="white" transform="translate(0.333008 0.826172)"/>
</clipPath>
</defs>
</svg>
