<svg width="30" height="28" viewBox="0 0 30 28" fill="none" xmlns="http://www.w3.org/2000/svg">
<g id="Frame" clip-path="url(#clip0_1603_5765)">
<path id="Vector" d="M19.5376 16.4643C19.4692 16.0646 19.3529 15.6746 19.1911 15.3025C18.7211 14.1978 17.9152 13.2673 16.8866 12.6418C16.0741 12.1653 15.147 11.9171 14.204 11.9237C13.261 11.9303 12.3375 12.1914 11.5319 12.6792C10.7813 13.1269 10.1731 13.7764 9.77708 14.553C9.64229 14.8184 9.52897 15.0941 9.43818 15.3775C9.19305 16.1133 9.09939 16.8908 9.1628 17.6634C9.2262 18.4361 9.44536 19.1881 9.80721 19.8746C10.0548 20.2947 10.4327 20.6235 10.8842 20.8115C11.1095 20.9049 11.3538 20.9441 11.5972 20.9259C11.8406 20.9076 12.0762 20.8325 12.285 20.7066C12.5147 20.5252 12.6862 20.2811 12.7785 20.0042C12.8708 19.7273 12.8799 19.4296 12.8046 19.1476C12.6297 18.431 12.6479 17.6813 12.8574 16.974C12.9405 16.7427 13.0743 16.5328 13.249 16.3594C13.3575 16.2553 13.4821 16.1693 13.618 16.1045C13.9018 15.9626 14.2224 15.9103 14.5368 15.9546C14.8097 16.0133 15.0646 16.1356 15.2807 16.3115C15.4967 16.4874 15.6677 16.7119 15.7795 16.9665C15.9886 17.4654 16.0986 17.9999 16.1033 18.5405C16.1072 20.9814 15.7442 23.4092 15.0263 25.7433C14.9586 25.9831 14.8908 26.2155 14.8305 26.4553C14.7703 26.6952 14.6799 26.8676 14.8305 27.0475C14.8831 27.1218 14.9564 27.1791 15.0414 27.2124C15.4029 27.3548 15.6891 27.1374 15.9301 26.8976C17.2981 25.4392 18.3063 23.684 18.8748 21.7709C19.1114 21.0698 19.3001 20.3537 19.4396 19.6273C19.6548 18.5791 19.693 17.5025 19.5526 16.4418" fill="#008375"/>
<path id="Vector_2" d="M29.6593 5.35645C29.6565 5.27402 29.6369 5.19301 29.6016 5.11836C29.5664 5.04372 29.5162 4.97702 29.4542 4.92232C29.3922 4.86761 29.3196 4.82604 29.2409 4.80017C29.1622 4.7743 29.0791 4.76466 28.9965 4.77183C28.6495 4.8196 28.3133 4.92606 28.0024 5.08662C21.6578 7.34641 14.8449 7.98553 8.18773 6.94543C7.06557 6.78053 5.92836 6.56317 4.79868 6.38329C4.09074 6.27086 3.39034 6.11347 2.6824 6.061C2.0423 5.93877 1.37946 6.0648 0.829721 6.41328C0.547323 6.72234 0.372193 7.11354 0.330158 7.52918C0.288122 7.94482 0.381408 8.3629 0.596255 8.72178C1.07594 9.53938 1.77134 10.2107 2.60709 10.663C3.38275 11.2101 4.30072 11.5224 5.25055 11.5625C7.76096 11.3976 10.2714 11.1477 12.7818 10.8129C17.0369 10.2658 21.4879 9.74861 25.487 8.10717C26.81 7.58353 28.0563 6.88523 29.1923 6.03102C29.3957 5.88111 29.6894 5.62628 29.6894 5.33397" fill="#008375"/>
<path id="Vector_3" d="M11.8105 3.23527C11.8105 3.88132 12.0684 4.50091 12.5274 4.95773C12.9865 5.41456 13.609 5.6712 14.2582 5.6712C14.9074 5.6712 15.5299 5.41456 15.9889 4.95773C16.448 4.50091 16.7058 3.88132 16.7058 3.23527C16.7055 3.03354 16.6618 2.83423 16.5778 2.65065C16.3669 2.20843 16.1259 1.99107 16.1561 1.45892C16.1561 0.746876 15.2598 0.7094 14.7628 0.7094C14.2102 0.691481 13.661 0.801841 13.1586 1.03171C12.7685 1.22932 12.4383 1.52684 12.2022 1.89365C11.9545 2.26804 11.8187 2.70468 11.8105 3.15283V3.21278" fill="#D50037"/>
</g>
<defs>
<clipPath id="clip0_1603_5765">
<rect width="29.3341" height="26.5404" fill="white" transform="translate(0.333008 0.731934)"/>
</clipPath>
</defs>
</svg>
