<svg width="30" height="30" viewBox="0 0 30 30" fill="none" xmlns="http://www.w3.org/2000/svg">
<g id="Frame" clip-path="url(#clip0_1603_9431)">
<path id="Vector" d="M29.4964 10.9966C29.7731 10.1612 29.7068 9.25002 29.3121 8.46341C28.9173 7.6768 28.2264 7.07909 27.3912 6.80163L10.0074 0.965758C9.59366 0.825332 9.15606 0.768753 8.72018 0.799318C8.2843 0.829883 7.85887 0.946987 7.46875 1.14378" fill="white"/>
<path id="Vector_2" d="M7.46915 1.1438C6.68195 1.53775 6.0834 2.22817 5.80508 3.06328L0.503263 18.9997C0.228695 19.8352 0.296002 20.7454 0.690477 21.5315C1.08495 22.3175 1.77452 22.9155 2.60851 23.1947L20 29.0306C20.4141 29.1693 20.8515 29.225 21.2871 29.1944C21.7227 29.1639 22.148 29.0477 22.5387 28.8526C22.9285 28.6588 23.2758 28.3892 23.5602 28.0596C23.8446 27.7301 24.0604 27.3471 24.195 26.9331L29.5046 10.9967" fill="white"/>
<path id="Vector_3" d="M15.9752 16.4533C15.0182 17.5258 13.8225 18.3583 12.4845 18.8836L11.7106 19.1855V11.8016L12.4845 12.1035C13.8242 12.6261 15.0225 13.4559 15.983 14.5261C16.5908 13.5316 16.9741 12.4163 17.1061 11.2583C17.238 10.1002 17.1154 8.92732 16.7468 7.82158C16.3782 6.71585 15.7726 5.70396 14.9722 4.85668C14.1718 4.00939 13.196 3.34716 12.113 2.91628L9.57435 2.04942C9.30552 1.96119 9.02193 1.92685 8.73982 1.94837C8.4577 1.96988 8.1826 2.04684 7.93026 2.1748C7.67792 2.30277 7.45329 2.47925 7.26924 2.69414C7.08519 2.90903 6.94532 3.1581 6.85765 3.42711L1.54036 19.379C1.36675 19.9282 1.41642 20.5236 1.67862 21.0364C1.94081 21.5492 2.39444 21.9381 2.94128 22.1189L15.0077 26.1436C16.2112 24.8586 16.9569 23.2123 17.129 21.4601C17.3011 19.708 16.8901 17.948 15.9597 16.4533H15.9752ZM8.99386 11.3605V19.6421H7.79418V11.3837L8.99386 11.3605Z" fill="#2293C8"/>
<path id="Vector_4" d="M15.279 15.4858C14.5993 14.692 13.7745 14.0353 12.8486 13.5508V17.4207C13.7784 16.9323 14.6039 16.2671 15.279 15.4625" fill="#E43D30"/>
<path id="Vector_5" d="M27.0123 7.86201L15.9365 4.16235C17.3278 5.68373 18.1618 7.63202 18.3024 9.68881C18.443 11.7456 17.8818 13.7893 16.7105 15.4858C17.8486 17.1316 18.4137 19.1062 18.3186 21.105C18.2235 23.1038 17.4735 25.0157 16.1842 26.5461L20.3482 27.9315C20.617 28.0208 20.9008 28.0559 21.1833 28.0349C21.4657 28.0139 21.7412 27.9371 21.9938 27.809C22.2464 27.6809 22.4711 27.504 22.655 27.2886C22.8388 27.0732 22.9782 26.8234 23.0649 26.5538L28.4055 10.6097C28.5815 10.0615 28.5339 9.46607 28.273 8.95289C28.012 8.43971 27.5589 8.05041 27.0123 7.86976V7.86201ZM24.0789 19.6266H22.5773L19.4814 15.4858L22.5773 11.3527H24.1253L21.0294 15.5013L24.0789 19.6266Z" fill="#215C9C"/>
</g>
<defs>
<clipPath id="clip0_1603_9431">
<rect width="29.3341" height="28.4131" fill="white" transform="translate(0.333008 0.795654)"/>
</clipPath>
</defs>
</svg>
