<svg width="24" height="24" viewBox="0 0 24 24" fill="none" xmlns="http://www.w3.org/2000/svg">
<g id="like icon">
<path id="Union" d="M3 11.5437C3 11.8081 3.1047 12.0617 3.29119 12.2491L11.2912 20.2878C11.6821 20.6806 12.3179 20.6806 12.7088 20.2878L20.7088 12.2491C20.8953 12.0617 21 11.8081 21 11.5437L21 8.19541C21 7.93103 20.8953 7.67741 20.7088 7.49001L18.524 5.2946C18.3363 5.10602 18.0812 5 17.8151 5L14.4681 5C14.2166 5 13.9743 5.09475 13.7896 5.26537L12 6.91812L10.2104 5.26537C10.0257 5.09475 9.78342 5 9.53195 5L6.18486 5C5.9188 5 5.66372 5.10602 5.47605 5.2946L3.29119 7.49001C3.1047 7.67741 3 7.93103 3 8.19541V11.5437Z" fill="#CCCCCC"/>
</g>
</svg>
