<svg width="24" height="24" viewBox="0 0 24 24" fill="none" xmlns="http://www.w3.org/2000/svg">
<path d="M21.9277 11.3713L19.9297 16.3723L18.0723 15.6301L20.0703 10.6301L21.9277 11.3713ZM15.6074 14.3156H15.6094C15.6043 14.3134 15.5989 14.3119 15.5938 14.3098L15.6074 14.3156ZM4.3125 9.47482L14.6963 13.925L16.8984 8.89084L6.52051 4.32248L4.3125 9.47482ZM4.99512 20.6848C4.97242 20.9137 4.8711 21.1291 4.70703 21.2932L4.29297 21.7072L4.21973 21.7736C4.04179 21.9196 3.81808 22.0002 3.58594 22.0002H3C2.44772 22.0002 2 21.5525 2 21.0002V15.0002C2.00008 14.4826 2.39337 14.0564 2.89746 14.0051L3 14.0002H3.58594C3.85112 14.0002 4.10545 14.1057 4.29297 14.2932L4.70703 14.7072C4.89453 14.8947 4.99996 15.1491 5 15.4143V17.0002H7.64551C8.05427 17.0002 8.42226 16.7517 8.57422 16.3723L9.56348 13.9006L2.60645 10.9192C2.36273 10.8146 2.16974 10.6175 2.07129 10.3713C1.97305 10.1252 1.97669 9.85021 2.08105 9.60666L5.08105 2.60666C5.13301 2.48511 5.20896 2.37461 5.30371 2.28244C5.39833 2.1905 5.51012 2.11806 5.63281 2.06955C5.75582 2.0212 5.88739 1.99748 6.01953 2.00021C6.1517 2.00296 6.2824 2.03174 6.40332 2.08517L18.6182 7.46213C18.8605 7.56887 19.0503 7.76816 19.1465 8.01486C19.2425 8.26149 19.237 8.53605 19.1309 8.77853L16.1309 15.636C16.025 15.8777 15.8275 16.0683 15.582 16.1653L15.4893 16.1965C15.269 16.2594 15.0326 16.2447 14.8203 16.1535L11.4014 14.6887L10.1787 17.7424C9.89377 18.4585 9.2357 18.9371 8.47656 18.9944L8.32324 19.0002H5V20.5861L4.99512 20.6848Z" fill="#AAAAAA"/>
</svg>
