<svg width="30" height="30" viewBox="0 0 30 30" fill="none" xmlns="http://www.w3.org/2000/svg">
<path d="M27.4097 14.2141L24.9121 20.4654L22.5903 19.5376L25.0879 13.2876L27.4097 14.2141ZM19.5093 17.8946H19.5117C19.5053 17.8918 19.4986 17.8899 19.4922 17.8872L19.5093 17.8946ZM5.39062 11.8435L18.3704 17.4063L21.123 11.1135L8.15063 5.4031L5.39062 11.8435ZM6.2439 25.856C6.21553 26.1421 6.08887 26.4113 5.88379 26.6165L5.36621 27.1341L5.27466 27.2171C5.05223 27.3995 4.7726 27.5002 4.48242 27.5003H3.75C3.05964 27.5003 2.5 26.9406 2.5 26.2503V18.7503C2.5001 18.1033 2.99171 17.5705 3.62183 17.5064L3.75 17.5003H4.48242C4.8139 17.5003 5.13181 17.6321 5.36621 17.8665L5.88379 18.3841C6.11817 18.6184 6.24995 18.9364 6.25 19.2678V21.2503H9.55688C10.0678 21.2503 10.5278 20.9397 10.7178 20.4654L11.9543 17.3758L3.25806 13.6489C2.95341 13.5183 2.71218 13.2719 2.58911 12.9641C2.46631 12.6565 2.47087 12.3128 2.60132 12.0083L6.35132 3.25832C6.41626 3.10638 6.5112 2.96827 6.62964 2.85305C6.74791 2.73812 6.88765 2.64758 7.04102 2.58694C7.19478 2.5265 7.35924 2.49685 7.52441 2.50027C7.68962 2.5037 7.853 2.53968 8.00415 2.60647L23.2727 9.32766C23.5756 9.46109 23.8129 9.7102 23.9331 10.0186C24.0532 10.3269 24.0462 10.6701 23.9136 10.9732L20.1636 19.5449C20.0312 19.8471 19.7844 20.0853 19.4775 20.2066L19.3616 20.2456C19.0862 20.3242 18.7908 20.3059 18.5254 20.1919L14.2517 18.3609L12.7234 22.178C12.3672 23.0731 11.5446 23.6714 10.5957 23.7429L10.4041 23.7503H6.25V25.7327L6.2439 25.856Z" fill="black"/>
</svg>
