<svg width="30" height="30" viewBox="0 0 30 30" fill="none" xmlns="http://www.w3.org/2000/svg">
<path fill-rule="evenodd" clip-rule="evenodd" d="M22.5003 2.5C23.1905 2.50016 23.7503 3.05974 23.7503 3.75V13.9478C23.8196 13.996 23.8854 14.052 23.9444 14.1162L24.5523 14.7766C24.6864 14.9227 24.7846 15.1037 24.8392 15.3015L26.2015 20.2429C26.3616 20.8245 26.1139 21.4479 25.6155 21.72L24.4241 22.3682C24.2655 22.4543 24.09 22.4997 23.9127 22.5H23.7881L24.9625 27.1973C25.1296 27.8668 24.7225 28.5446 24.053 28.7122C23.3834 28.8794 22.7056 28.4723 22.5381 27.8027L21.2881 22.8027L21.2625 22.6782C21.2538 22.6185 21.2503 22.559 21.2503 22.5H8.74908C8.74905 22.559 8.74676 22.6185 8.73809 22.6782L8.71246 22.8027L7.46246 27.8027C7.29507 28.4723 6.61713 28.8792 5.94757 28.7122C5.27792 28.5447 4.8709 27.8669 5.03814 27.1973L6.21246 22.5H6.08795C5.91003 22.4999 5.7332 22.4547 5.57403 22.3682L4.38507 21.72C3.88613 21.4481 3.63884 20.8249 3.79913 20.2429L5.16021 15.3015C5.21481 15.1037 5.31418 14.9227 5.4483 14.7766L6.05377 14.1162C6.1137 14.051 6.17975 13.994 6.2503 13.9453V3.75C6.2503 3.05964 6.80995 2.5 7.5003 2.5C8.19052 2.50016 8.7503 3.05974 8.7503 3.75H21.2503C21.2503 3.05964 21.8099 2.5 22.5003 2.5ZM23.9114 22.3462L23.9127 21.4282L23.9114 21.427V22.3462ZM6.45904 20H23.5403L22.5076 16.25H7.49176L6.45904 20ZM8.7503 13.75H21.2503V11.25H8.7503V13.75ZM8.7503 8.75H21.2503V6.25H8.7503V8.75Z" fill="black"/>
</svg>
