<svg width="24" height="24" viewBox="0 0 24 24" fill="none" xmlns="http://www.w3.org/2000/svg">
<path fill-rule="evenodd" clip-rule="evenodd" d="M17.9998 2C18.5519 2.00013 18.9998 2.44779 18.9998 3V11.1582C19.0552 11.1968 19.1078 11.2416 19.155 11.293L19.6414 11.8213C19.7486 11.9382 19.8272 12.083 19.8709 12.2412L20.9607 16.1943C21.0888 16.6596 20.8906 17.1583 20.492 17.376L19.5388 17.8945C19.4119 17.9635 19.2715 17.9998 19.1296 18H19.03L19.9695 21.7578C20.1032 22.2934 19.7775 22.8357 19.242 22.9697C18.7063 23.1035 18.164 22.7779 18.03 22.2422L17.03 18.2422L17.0095 18.1426C17.0026 18.0948 16.9998 18.0472 16.9998 18H6.99879C6.99877 18.0472 6.99693 18.0948 6.99 18.1426L6.96949 18.2422L5.96949 22.2422C5.83558 22.7778 5.29323 23.1034 4.75758 22.9697C4.22186 22.8358 3.89624 22.2935 4.03004 21.7578L4.96949 18H4.86988C4.72755 18 4.58609 17.9638 4.45875 17.8945L3.50758 17.376C3.10842 17.1585 2.9106 16.6599 3.03883 16.1943L4.12769 12.2412C4.17137 12.0829 4.25087 11.9382 4.35816 11.8213L4.84254 11.293C4.89049 11.2408 4.94332 11.1952 4.99977 11.1562V3C4.99977 2.44772 5.44748 2 5.99977 2C6.55194 2.00013 6.99977 2.44779 6.99977 3H16.9998C16.9998 2.44772 17.4475 2 17.9998 2ZM19.1287 17.877L19.1296 17.1426L19.1287 17.1416V17.877ZM5.16676 16H18.8318L18.0056 13H5.99293L5.16676 16ZM6.99977 11H16.9998V9H6.99977V11ZM6.99977 7H16.9998V5H6.99977V7Z" fill="#AAAAAA"/>
</svg>
