<svg width="30" height="30" viewBox="0 0 30 30" fill="none" xmlns="http://www.w3.org/2000/svg">
<path fill-rule="evenodd" clip-rule="evenodd" d="M15 5C21.9036 5 27.5 7.23858 27.5 10C27.5 11.4941 25.8613 12.8338 23.2642 13.75H23.4973L24.9048 23.1262C24.9636 23.5183 24.8323 23.9152 24.552 24.1956L24.032 24.7168C23.8505 24.8979 23.6036 24.9999 23.3472 25C22.862 24.9994 22.4502 24.6399 22.3865 24.1589L21.6724 18.75H8.33496L7.61108 24.1589C7.54651 24.6403 7.13486 25 6.64917 25C6.39257 24.9996 6.14583 24.897 5.96436 24.7156L5.44312 24.1956C5.16346 23.9153 5.03286 23.5178 5.09155 23.1262L6.4978 13.75H6.73584C4.13869 12.8338 2.5 11.4941 2.5 10C2.5 7.23858 8.09644 5 15 5ZM8.65967 16.25H21.3354L21.0803 14.3677C19.2805 14.7693 17.2073 15 15 15C12.7902 15 10.7148 14.7689 8.91357 14.3665L8.65967 16.25ZM15 7.5C11.785 7.5 8.9894 8.02563 7.08984 8.7854C6.13313 9.16809 5.52658 9.56194 5.2002 9.87061C5.14793 9.92004 5.10938 9.96431 5.07812 10C5.10938 10.0357 5.14793 10.08 5.2002 10.1294C5.52658 10.4381 6.13313 10.8319 7.08984 11.2146C8.9894 11.9744 11.785 12.5 15 12.5C18.215 12.5 21.0106 11.9744 22.9102 11.2146C23.8669 10.8319 24.4734 10.4381 24.7998 10.1294C24.8518 10.0802 24.8895 10.0356 24.9207 10C24.8895 9.96444 24.8518 9.91976 24.7998 9.87061C24.4734 9.56194 23.8669 9.16809 22.9102 8.7854C21.0106 8.02563 18.215 7.5 15 7.5Z" fill="black"/>
</svg>
