<svg width="24" height="24" viewBox="0 0 24 24" fill="none" xmlns="http://www.w3.org/2000/svg">
<path fill-rule="evenodd" clip-rule="evenodd" d="M12 4C17.5228 4 22 5.79086 22 8C22 9.19524 20.689 10.267 18.6113 11H18.7979L19.9238 18.501C19.9709 18.8146 19.8659 19.1321 19.6416 19.3564L19.2256 19.7734C19.0804 19.9183 18.8828 19.9999 18.6777 20C18.2896 19.9995 17.9602 19.7119 17.9092 19.3271L17.3379 15H6.66797L6.08887 19.3271C6.03721 19.7122 5.70789 20 5.31934 20C5.11406 19.9997 4.91667 19.9176 4.77148 19.7725L4.35449 19.3564C4.13077 19.1322 4.02629 18.8143 4.07324 18.501L5.19824 11H5.38867C3.31095 10.267 2 9.19524 2 8C2 5.79086 6.47715 4 12 4ZM6.92773 13H17.0684L16.8643 11.4941C15.4244 11.8154 13.7658 12 12 12C10.2322 12 8.57185 11.8151 7.13086 11.4932L6.92773 13ZM12 6C9.428 6 7.19152 6.42051 5.67188 7.02832C4.9065 7.33447 4.42127 7.64955 4.16016 7.89648C4.11834 7.93604 4.0875 7.97145 4.0625 8C4.0875 8.02855 4.11834 8.06396 4.16016 8.10352C4.42127 8.35045 4.9065 8.66553 5.67188 8.97168C7.19152 9.57949 9.428 10 12 10C14.572 10 16.8085 9.57949 18.3281 8.97168C19.0935 8.66553 19.5787 8.35045 19.8398 8.10352C19.8814 8.06419 19.9116 8.02845 19.9365 8C19.9116 7.97155 19.8814 7.93581 19.8398 7.89648C19.5787 7.64955 19.0935 7.33447 18.3281 7.02832C16.8085 6.42051 14.572 6 12 6Z" fill="#AAAAAA"/>
</svg>
