<svg width="24" height="24" viewBox="0 0 24 24" fill="none" xmlns="http://www.w3.org/2000/svg">
<path d="M21 13C21.5523 13 22 13.4477 22 14V16C22 16.5523 21.5523 17 21 17H20V20H18V17H6V20H4V17H3C2.44772 17 2 16.5523 2 16V14C2 13.4477 2.44772 13 3 13H21Z" fill="#AAAAAA"/>
<path d="M5 9C6.10457 9 7 9.89543 7 11V16C7 16.5523 6.55228 17 6 17H3C2.44772 17 2 16.5523 2 16V11C2 9.89543 2.89543 9 4 9H5ZM20 9C21.1046 9 22 9.89543 22 11V16C22 16.5523 21.5523 17 21 17H18C17.4477 17 17 16.5523 17 16V11C17 9.89543 17.8954 9 19 9H20Z" fill="#AAAAAA"/>
<path d="M16.5859 5L19 7.41406V14.5H5V7.41406L7.41406 5H16.5859Z" stroke="#AAAAAA" stroke-width="2"/>
</svg>
