<svg width="30" height="30" viewBox="0 0 30 30" fill="none" xmlns="http://www.w3.org/2000/svg">
<path d="M26.25 16.25C26.9404 16.25 27.5 16.8096 27.5 17.5V20C27.5 20.6904 26.9404 21.25 26.25 21.25H25V25H22.5V21.25H7.5V25H5V21.25H3.75C3.05964 21.25 2.5 20.6904 2.5 20V17.5C2.5 16.8096 3.05964 16.25 3.75 16.25H26.25Z" fill="black"/>
<path d="M6.25 11.25C7.63071 11.25 8.75 12.3693 8.75 13.75V20C8.75 20.6904 8.19036 21.25 7.5 21.25H3.75C3.05964 21.25 2.5 20.6904 2.5 20V13.75C2.5 12.3693 3.61929 11.25 5 11.25H6.25ZM25 11.25C26.3807 11.25 27.5 12.3693 27.5 13.75V20C27.5 20.6904 26.9404 21.25 26.25 21.25H22.5C21.8096 21.25 21.25 20.6904 21.25 20V13.75C21.25 12.3693 22.3693 11.25 23.75 11.25H25Z" fill="black"/>
<path d="M20.7324 6.25L23.75 9.26758V18.125H6.25V9.26758L9.26758 6.25H20.7324Z" stroke="black" stroke-width="2.5"/>
</svg>
