<svg width="30" height="30" viewBox="0 0 30 30" fill="none" xmlns="http://www.w3.org/2000/svg">
<rect x="8.75" y="25" width="12.5" height="2.5" rx="1.25" fill="black"/>
<path fill-rule="evenodd" clip-rule="evenodd" d="M11.6393 2.50966C11.6521 2.51152 11.6649 2.51417 11.6771 2.51885C11.7512 2.54744 11.8117 2.60637 11.8424 2.68262L13.6402 7.14705C13.671 7.22361 13.7325 7.28254 13.8072 7.31097C13.8192 7.31553 13.8318 7.31814 13.8445 7.31997L13.894 7.32711C13.9058 7.32882 13.9177 7.32967 13.9297 7.32967H23.459C23.6198 7.32981 23.7497 7.45909 23.75 7.61882V8.97184L23.7444 9.02995C23.7211 9.14316 23.6314 9.2323 23.5174 9.25545L23.459 9.26099H21.9662L21.9091 9.26652C21.7815 9.29168 21.6833 9.39998 21.6751 9.53353L20.8869 22.8411L20.8591 23.0223C20.8139 23.1988 20.7186 23.3605 20.5834 23.4871L20.4385 23.5992C20.3353 23.6645 20.2203 23.709 20.1002 23.732L19.9163 23.75H10.0837L9.89984 23.732C9.78008 23.7091 9.6658 23.6642 9.56284 23.5992L9.41663 23.4871C9.28141 23.3605 9.18609 23.1988 9.1409 23.0223L9.11305 22.8411L8.32488 9.53353C8.31668 9.39987 8.21866 9.29154 8.09093 9.26652L8.03384 9.26099H6.54104L6.48255 9.25545C6.36875 9.23218 6.27882 9.14307 6.25557 9.02995L6.25 8.97184V7.61882C6.25024 7.4791 6.34994 7.3623 6.48255 7.33521L6.54104 7.32967H11.1893L11.2631 7.31999C11.4035 7.28374 11.497 7.14747 11.479 7.00456L11.4595 6.93262L10.5265 4.61393C10.4932 4.53125 10.4241 4.4705 10.3413 4.44515L10.2746 4.43446C10.2615 4.43237 10.2483 4.43132 10.235 4.43132H7.51442L7.45454 4.42578C7.34081 4.40241 7.25074 4.31339 7.22756 4.20028L7.22199 4.14217V2.78914C7.22229 2.64956 7.32208 2.5327 7.45454 2.50553L7.51442 2.5H11.5543C11.5663 2.5 11.5782 2.50086 11.59 2.50256L11.6393 2.50966ZM11.0194 22.0981C11.0273 22.2302 11.1367 22.3333 11.269 22.3333H18.7487C18.8812 22.3333 18.9907 22.23 18.9983 22.0977L19.3745 15.5707C19.3782 15.5065 19.3233 15.4564 19.2591 15.4589L19.0822 15.4575C16.8466 15.3193 15.8745 14.9239 14.8211 14.5057C14.0039 14.1808 13.0953 13.8281 11.3968 13.6673L10.6184 13.6106C10.565 13.6078 10.5196 13.6483 10.5228 13.7016L11.0194 22.0981ZM10.5042 9.2679C10.3668 9.2973 10.2659 9.42274 10.2744 9.56812L10.3509 10.8741C10.3509 10.8756 10.3522 10.8769 10.3538 10.8769C10.3554 10.8769 10.3567 10.8781 10.3568 10.8796L10.4084 11.5672C10.4275 11.705 10.5408 11.8115 10.6828 11.819C13.1034 11.9459 14.3143 12.4062 15.3394 12.8137C16.1939 13.153 16.9248 13.4562 18.4531 13.6106L19.1591 13.6673C19.2987 13.676 19.4222 13.5836 19.4571 13.4543L19.4655 13.3962L19.7256 9.56812C19.7342 9.4226 19.6334 9.29715 19.4958 9.2679L19.4345 9.26099H10.5655L10.5042 9.2679Z" fill="black"/>
</svg>
