<svg width="24" height="24" viewBox="0 0 24 24" fill="none" xmlns="http://www.w3.org/2000/svg">
<path d="M8.41737 3.68215C8.38412 3.59956 8.30401 3.54545 8.21498 3.54545H5.99596C5.87546 3.54545 5.77778 3.44777 5.77778 3.32727V2.21818C5.77778 2.09768 5.87546 2 5.99596 2H9.26809C9.35712 2 9.43723 2.0541 9.47048 2.1367L10.916 5.72694C10.9492 5.80953 11.0293 5.86364 11.1184 5.86364H18.7818C18.9023 5.86364 19 5.96132 19 6.08182V7.19091C19 7.31141 18.9023 7.40909 18.7818 7.40909H17.5583C17.4428 7.40909 17.3473 7.49909 17.3405 7.61438L16.7094 18.2729C16.6977 18.4695 16.6109 18.6543 16.4666 18.7895C16.3223 18.9246 16.1315 18.9999 15.9332 19H8.06678C7.86848 18.9999 7.67768 18.9246 7.5334 18.7895C7.38912 18.6543 7.30226 18.4695 7.29056 18.2729L6.65949 7.61438C6.65266 7.49909 6.55718 7.40909 6.44169 7.40909H5.21818C5.09768 7.40909 5 7.31141 5 7.19091V6.08182C5 5.96132 5.09768 5.86364 5.21818 5.86364H8.97262C9.12719 5.86364 9.23274 5.70735 9.17502 5.56397L8.41737 3.68215ZM8.43671 7.40909C8.31114 7.40909 8.21148 7.51482 8.21891 7.64017L8.332 9.54956C8.33862 9.66142 8.42901 9.74993 8.54092 9.7557C10.4866 9.85615 11.458 10.225 12.28 10.5518C13.0637 10.8629 13.7174 11.1357 15.3513 11.2353C15.4707 11.2426 15.5734 11.151 15.5804 11.0316L15.7811 7.64016C15.7885 7.51481 15.6889 7.40909 15.5633 7.40909H8.43671Z" fill="#AAAAAA"/>
<rect x="7" y="20" width="10" height="2" rx="1" fill="#AAAAAA"/>
</svg>
