<svg width="30" height="30" viewBox="0 0 30 30" fill="none" xmlns="http://www.w3.org/2000/svg">
<path d="M18.7498 24.4434C18.7498 24.7977 18.5993 25.1353 18.336 25.3723L16.3291 27.179L16.2388 27.2522C16.0546 27.3893 15.8363 27.4739 15.6077 27.4951L15.4917 27.5H9.50783L9.39186 27.4951C9.16327 27.4739 8.94488 27.3893 8.76076 27.2522L8.67043 27.179L6.66359 25.3723C6.40032 25.1353 6.24979 24.7976 6.24977 24.4434V22.5H18.7498V24.4434Z" fill="black"/>
<path fill-rule="evenodd" clip-rule="evenodd" d="M13.2322 2.5C13.5636 2.5 13.8816 2.63199 14.116 2.86621L14.6336 3.38379C14.8679 3.61817 14.9997 3.93613 14.9998 4.26758V4.375H18.2139L18.6509 3.99292C18.832 3.83446 19.0561 3.7311 19.2942 3.69629L26.0703 2.70874C26.8243 2.59896 27.5009 3.18336 27.501 3.94531V7.30469C27.5009 8.06664 26.8243 8.65104 26.0703 8.54126L19.2942 7.55371C19.0561 7.5189 18.832 7.41557 18.6509 7.25708L18.2139 6.875H14.9998V8.8623C15.1347 8.92369 15.2591 9.00942 15.366 9.11621L18.3836 12.1338C18.6179 12.3682 18.7497 12.6861 18.7498 13.0176V21.25H6.24977V13.0176C6.24983 12.6863 6.38186 12.3681 6.61599 12.1338L9.63356 9.11621C9.74016 9.00961 9.86519 8.92494 9.99977 8.86353V6.875L9.57375 6.89331C7.50597 7.07451 6.42839 8.54507 6.16066 9.21387C5.90423 9.85452 5.17669 10.1669 4.53591 9.91089C3.89564 9.65434 3.5831 8.92671 3.83889 8.28613C4.36981 6.95882 6.22722 4.53278 9.66286 4.38232L9.99977 4.375V4.26758C9.99983 3.93627 10.1318 3.61814 10.366 3.38379L10.8836 2.86621C11.1177 2.63203 11.4362 2.50027 11.7674 2.5H13.2322ZM8.74977 13.5352V18.75H16.2498V13.5352L13.9646 11.25H11.0349L8.74977 13.5352ZM12.4998 4.375C11.8096 4.37524 11.2498 4.93479 11.2498 5.625C11.2498 6.31521 11.8096 6.87476 12.4998 6.875C13.1901 6.875 13.7498 6.31536 13.7498 5.625C13.7498 4.93464 13.1901 4.375 12.4998 4.375Z" fill="black"/>
</svg>
