<svg width="24" height="24" viewBox="0 0 24 24" fill="none" xmlns="http://www.w3.org/2000/svg">
<path d="M15.0002 19.5547C15.0001 19.8381 14.8798 20.1082 14.6691 20.2979L13.0636 21.7432L12.9914 21.8018C12.844 21.9115 12.6694 21.9792 12.4865 21.9961L12.3937 22H7.6066L7.51382 21.9961C7.33095 21.9791 7.15623 21.9115 7.00894 21.8018L6.93668 21.7432L5.33121 20.2979C5.12059 20.1082 5.00017 19.8381 5.00015 19.5547V18H15.0002V19.5547Z" fill="#AAAAAA"/>
<path fill-rule="evenodd" clip-rule="evenodd" d="M10.5861 2C10.8512 2 11.1056 2.10559 11.2931 2.29297L11.7072 2.70703C11.8947 2.89453 12.0001 3.1489 12.0002 3.41406V3.5H14.5714L14.9211 3.19434C15.0659 3.06757 15.2452 2.98488 15.4357 2.95703L20.8566 2.16699C21.4598 2.07917 22.001 2.54668 22.0011 3.15625V5.84375C22.001 6.45332 21.4598 6.92083 20.8566 6.83301L15.4357 6.04297C15.2452 6.01512 15.066 5.93246 14.9211 5.80566L14.5714 5.5H12.0002V7.08984C12.1081 7.13895 12.2076 7.20754 12.2931 7.29297L14.7072 9.70703C14.8947 9.89453 15.0001 10.1489 15.0002 10.4141V17H5.00015V10.4141C5.00019 10.1491 5.10582 9.8945 5.29312 9.70703L7.70718 7.29297C7.79246 7.20769 7.89248 7.13995 8.00015 7.09082V5.5L7.65933 5.51465C6.00511 5.65961 5.14304 6.83606 4.92886 7.37109C4.72371 7.88361 4.14169 8.13355 3.62906 7.92871C3.11684 7.72347 2.86681 7.14137 3.07144 6.62891C3.49618 5.56705 4.98211 3.62623 7.73062 3.50586L8.00015 3.5V3.41406C8.00019 3.14902 8.10578 2.89451 8.29312 2.70703L8.70718 2.29297C8.89453 2.10562 9.14929 2.00021 9.41422 2H10.5861ZM7.00015 10.8281V15H13.0002V10.8281L11.172 9H8.82828L7.00015 10.8281ZM10.0002 3.5C9.44803 3.50019 9.00015 3.94783 9.00015 4.5C9.00015 5.05217 9.44803 5.49981 10.0002 5.5C10.5524 5.5 11.0002 5.05228 11.0002 4.5C11.0002 3.94772 10.5524 3.5 10.0002 3.5Z" fill="#AAAAAA"/>
</svg>
