<svg width="30" height="30" viewBox="0 0 30 30" fill="none" xmlns="http://www.w3.org/2000/svg">
<path d="M13.0349 3.75H16.9997C17.3312 3.75 17.6491 3.8818 17.8835 4.11621L19.6511 5.88379C19.8855 6.11817 20.0172 6.43613 20.0173 6.76758V8.75H23.7673C25.0923 8.75 26.1173 10 26.2673 11.25L27.5173 23.75C27.6673 25 26.8423 26.25 25.0173 26.25H5.01729C3.19245 26.2499 2.36731 24.9999 2.51729 23.75L3.76729 11.25C3.91728 10.0001 4.82991 8.75012 6.26729 8.75H10.0173V6.76758C10.0173 6.43613 10.1491 6.11816 10.3835 5.88379L12.1511 4.11621C12.3854 3.88188 12.7035 3.7501 13.0349 3.75ZM6.3564 11.25C6.34162 11.2719 6.32456 11.3018 6.30757 11.3403C6.27799 11.4075 6.25829 11.4805 6.2502 11.5479L5.0295 23.75H25.0051L23.7832 11.5369C23.778 11.5048 23.7655 11.4549 23.738 11.3965C23.709 11.3348 23.6731 11.2849 23.6416 11.25H6.3564ZM13.7673 6.25C13.077 6.25011 12.5173 6.80971 12.5173 7.5V8.75H17.5173V7.5C17.5173 6.80964 16.9576 6.25 16.2673 6.25H13.7673Z" fill="black"/>
<mask id="path-2-inside-1_2987_28684" fill="white">
<path d="M16.2671 12.5H13.7671V16.25H10.0171V18.75H13.7671V22.5H16.2671V18.75H20.0171V16.25H16.2671V12.5Z"/>
</mask>
<path d="M13.7671 12.5V10H11.2671V12.5H13.7671ZM16.2671 12.5H18.7671V10H16.2671V12.5ZM16.2671 16.25H13.7671V18.75H16.2671V16.25ZM20.0171 16.25H22.5171V13.75H20.0171V16.25ZM20.0171 18.75V21.25H22.5171V18.75H20.0171ZM16.2671 18.75V16.25H13.7671V18.75H16.2671ZM16.2671 22.5V25H18.7671V22.5H16.2671ZM13.7671 22.5H11.2671V25H13.7671V22.5ZM13.7671 18.75H16.2671V16.25H13.7671V18.75ZM10.0171 18.75H7.51709V21.25H10.0171V18.75ZM10.0171 16.25V13.75H7.51709V16.25H10.0171ZM13.7671 16.25V18.75H16.2671V16.25H13.7671ZM13.7671 12.5V15H16.2671V12.5V10H13.7671V12.5ZM16.2671 12.5H13.7671V16.25H16.2671H18.7671V12.5H16.2671ZM16.2671 16.25V18.75H20.0171V16.25V13.75H16.2671V16.25ZM20.0171 16.25H17.5171V18.75H20.0171H22.5171V16.25H20.0171ZM20.0171 18.75V16.25H16.2671V18.75V21.25H20.0171V18.75ZM16.2671 18.75H13.7671V22.5H16.2671H18.7671V18.75H16.2671ZM16.2671 22.5V20H13.7671V22.5V25H16.2671V22.5ZM13.7671 22.5H16.2671V18.75H13.7671H11.2671V22.5H13.7671ZM13.7671 18.75V16.25H10.0171V18.75V21.25H13.7671V18.75ZM10.0171 18.75H12.5171V16.25H10.0171H7.51709V18.75H10.0171ZM10.0171 16.25V18.75H13.7671V16.25V13.75H10.0171V16.25ZM13.7671 16.25H16.2671V12.5H13.7671H11.2671V16.25H13.7671Z" fill="black" mask="url(#path-2-inside-1_2987_28684)"/>
</svg>
