<svg width="24" height="24" viewBox="0 0 24 24" fill="none" xmlns="http://www.w3.org/2000/svg">
<path d="M10.4279 3H13.5998C13.865 3 14.1193 3.10544 14.3068 3.29297L15.7209 4.70703C15.9084 4.89453 16.0138 5.1489 16.0138 5.41406V7H19.0138C20.0738 7 20.8938 8.00001 21.0138 9L22.0138 19C22.1338 20 21.4738 21 20.0138 21H4.01383C2.55396 20.9999 1.89385 20 2.01383 19L3.01383 9C3.13383 8.00005 3.86393 7.0001 5.01383 7H8.01383V5.41406C8.01387 5.1489 8.11931 4.89453 8.3068 4.70703L9.72087 3.29297C9.90833 3.10551 10.1628 3.00008 10.4279 3ZM5.08512 9C5.0733 9.01753 5.05964 9.04145 5.04606 9.07227C5.0224 9.12597 5.00664 9.18437 5.00016 9.23828L4.0236 19H20.0041L19.0265 9.22949C19.0224 9.20385 19.0124 9.16391 18.9904 9.11719C18.9672 9.06787 18.9385 9.02794 18.9133 9H5.08512ZM11.0138 5C10.4616 5.00009 10.0138 5.44777 10.0138 6V7H14.0138V6C14.0138 5.44772 13.5661 5 13.0138 5H11.0138Z" fill="#AAAAAA"/>
<mask id="path-2-inside-1_3409_17789" fill="white">
<path d="M13.0137 10H11.0137V13H8.01367V15H11.0137V18H13.0137V15H16.0137V13H13.0137V10Z"/>
</mask>
<path d="M11.0137 10V8H9.01367V10H11.0137ZM13.0137 10H15.0137V8H13.0137V10ZM13.0137 13H11.0137V15H13.0137V13ZM16.0137 13H18.0137V11H16.0137V13ZM16.0137 15V17H18.0137V15H16.0137ZM13.0137 15V13H11.0137V15H13.0137ZM13.0137 18V20H15.0137V18H13.0137ZM11.0137 18H9.01367V20H11.0137V18ZM11.0137 15H13.0137V13H11.0137V15ZM8.01367 15H6.01367V17H8.01367V15ZM8.01367 13V11H6.01367V13H8.01367ZM11.0137 13V15H13.0137V13H11.0137ZM11.0137 10V12H13.0137V10V8H11.0137V10ZM13.0137 10H11.0137V13H13.0137H15.0137V10H13.0137ZM13.0137 13V15H16.0137V13V11H13.0137V13ZM16.0137 13H14.0137V15H16.0137H18.0137V13H16.0137ZM16.0137 15V13H13.0137V15V17H16.0137V15ZM13.0137 15H11.0137V18H13.0137H15.0137V15H13.0137ZM13.0137 18V16H11.0137V18V20H13.0137V18ZM11.0137 18H13.0137V15H11.0137H9.01367V18H11.0137ZM11.0137 15V13H8.01367V15V17H11.0137V15ZM8.01367 15H10.0137V13H8.01367H6.01367V15H8.01367ZM8.01367 13V15H11.0137V13V11H8.01367V13ZM11.0137 13H13.0137V10H11.0137H9.01367V13H11.0137Z" fill="#AAAAAA" mask="url(#path-2-inside-1_3409_17789)"/>
</svg>
