<svg width="30" height="30" viewBox="0 0 30 30" fill="none" xmlns="http://www.w3.org/2000/svg">
<path d="M25.7324 3.75L27.5 5.51758V19.4824L25.7324 21.25H4.26758L2.5 19.4824V5.51758L4.26758 3.75H25.7324Z" stroke="black" stroke-width="2.5"/>
<path d="M12.5 20H17.5V27.5H12.5V20Z" fill="black"/>
<mask id="path-3-inside-1_2987_28648" fill="white">
<path d="M8.75 26.6161C8.75 26.3817 8.84312 26.1569 9.00888 25.9911L9.63388 25.3661C9.8683 25.1317 10.1862 25 10.5178 25H19.4822C19.8138 25 20.1317 25.1317 20.3661 25.3661L20.9911 25.9911C21.1569 26.1569 21.25 26.3817 21.25 26.6161C21.25 27.1043 20.8543 27.5 20.3661 27.5H9.63388C9.14573 27.5 8.75 27.1043 8.75 26.6161Z"/>
</mask>
<path d="M20.3661 25.3661L18.5983 27.1339L20.3661 25.3661ZM20.9911 25.9911L22.7589 24.2233L20.9911 25.9911ZM20.3661 27.5V25H9.63388V27.5V30H20.3661V27.5ZM9.00888 25.9911L10.7767 27.7589L11.4017 27.1339L9.63388 25.3661L7.86612 23.5983L7.24112 24.2233L9.00888 25.9911ZM10.5178 25V27.5H19.4822V25V22.5H10.5178V25ZM20.3661 25.3661L18.5983 27.1339L19.2233 27.7589L20.9911 25.9911L22.7589 24.2233L22.1339 23.5983L20.3661 25.3661ZM19.4822 25V27.5C19.1507 27.5 18.8328 27.3683 18.5983 27.1339L20.3661 25.3661L22.1339 23.5983C21.4306 22.8951 20.4768 22.5 19.4822 22.5V25ZM9.63388 25.3661L11.4017 27.1339C11.1672 27.3683 10.8493 27.5 10.5178 27.5V25V22.5C9.52321 22.5 8.56938 22.8951 7.86612 23.5983L9.63388 25.3661ZM9.63388 27.5V25C10.5264 25 11.25 25.7236 11.25 26.6161H8.75H6.25C6.25 28.485 7.76502 30 9.63388 30V27.5ZM21.25 26.6161H18.75C18.75 25.7236 19.4736 25 20.3661 25V27.5V30C22.235 30 23.75 28.485 23.75 26.6161H21.25ZM21.25 26.6161H23.75C23.75 25.7187 23.3935 24.858 22.7589 24.2233L20.9911 25.9911L19.2233 27.7589C18.9203 27.4558 18.75 27.0447 18.75 26.6161H21.25ZM8.75 26.6161H11.25C11.25 27.0447 11.0797 27.4558 10.7767 27.7589L9.00888 25.9911L7.24112 24.2233C6.60652 24.858 6.25 25.7187 6.25 26.6161H8.75Z" fill="black" mask="url(#path-3-inside-1_2987_28648)"/>
<path d="M22.9613 14.0305C23.4523 13.63 24.176 13.6583 24.6337 14.1159C25.0913 14.5736 25.1196 15.2973 24.7191 15.7883L24.6337 15.8835L22.1337 18.3835C21.6455 18.8716 20.8542 18.8716 20.3661 18.3835C19.878 17.8954 19.878 17.1041 20.3661 16.6159L22.8661 14.1159L22.9613 14.0305Z" fill="black"/>
<path d="M21.7113 10.2805C22.2023 9.88003 22.926 9.90827 23.3837 10.3659C23.8413 10.8236 23.8696 11.5473 23.4691 12.0383L23.3837 12.1335L18.3837 17.1335C17.8955 17.6216 17.1042 17.6216 16.6161 17.1335C16.128 16.6454 16.128 15.8541 16.6161 15.3659L21.6161 10.3659L21.7113 10.2805Z" fill="black"/>
</svg>
