<svg width="24" height="24" viewBox="0 0 24 24" fill="none" xmlns="http://www.w3.org/2000/svg">
<path d="M20.5859 3L22 4.41406V15.5859L20.5859 17H3.41406L2 15.5859V4.41406L3.41406 3H20.5859Z" stroke="#AAAAAA" stroke-width="2"/>
<path d="M10 16H14V22H10V16Z" fill="#AAAAAA"/>
<mask id="path-3-inside-1_3409_17776" fill="white">
<path d="M7 21.2929C7 21.1054 7.0745 20.9255 7.20711 20.7929L7.70711 20.2929C7.89464 20.1054 8.149 20 8.41421 20H15.5858C15.851 20 16.1054 20.1054 16.2929 20.2929L16.7929 20.7929C16.9255 20.9255 17 21.1054 17 21.2929V21.2929C17 21.6834 16.6834 22 16.2929 22H7.70711C7.31658 22 7 21.6834 7 21.2929V21.2929Z"/>
</mask>
<path d="M16.2929 20.2929L14.8787 21.7071L16.2929 20.2929ZM16.7929 20.7929L18.2071 19.3787L16.7929 20.7929ZM16.2929 22V20H7.70711V22V24H16.2929V22ZM7.20711 20.7929L8.62132 22.2071L9.12132 21.7071L7.70711 20.2929L6.29289 18.8787L5.79289 19.3787L7.20711 20.7929ZM8.41421 20V22H15.5858V20V18H8.41421V20ZM16.2929 20.2929L14.8787 21.7071L15.3787 22.2071L16.7929 20.7929L18.2071 19.3787L17.7071 18.8787L16.2929 20.2929ZM15.5858 20V22C15.3206 22 15.0662 21.8946 14.8787 21.7071L16.2929 20.2929L17.7071 18.8787C17.1445 18.3161 16.3814 18 15.5858 18V20ZM7.70711 20.2929L9.12132 21.7071C8.93378 21.8946 8.67943 22 8.41421 22V20V18C7.61857 18 6.8555 18.3161 6.29289 18.8787L7.70711 20.2929ZM7.70711 22V20C8.42115 20 9 20.5788 9 21.2929H7H5C5 22.788 6.21201 24 7.70711 24V22ZM17 21.2929H15C15 20.5788 15.5788 20 16.2929 20V22V24C17.788 24 19 22.788 19 21.2929H17ZM17 21.2929H19C19 20.5749 18.7148 19.8864 18.2071 19.3787L16.7929 20.7929L15.3787 22.2071C15.1362 21.9646 15 21.6358 15 21.2929H17ZM7 21.2929H9C9 21.6358 8.86378 21.9646 8.62132 22.2071L7.20711 20.7929L5.79289 19.3787C5.28521 19.8864 5 20.5749 5 21.2929H7Z" fill="#AAAAAA" mask="url(#path-3-inside-1_3409_17776)"/>
<path d="M18.3691 11.2244C18.7618 10.904 19.3408 10.9266 19.7069 11.2927C20.073 11.6589 20.0956 12.2379 19.7753 12.6306L19.7069 12.7068L17.7069 14.7068C17.3164 15.0973 16.6834 15.0973 16.2929 14.7068C15.9024 14.3163 15.9024 13.6833 16.2929 13.2927L18.2929 11.2927L18.3691 11.2244Z" fill="#AAAAAA"/>
<path d="M17.3691 8.22437C17.7618 7.90402 18.3408 7.92662 18.7069 8.29273C19.073 8.65885 19.0956 9.23786 18.7753 9.63063L18.7069 9.7068L14.7069 13.7068C14.3164 14.0973 13.6834 14.0973 13.2929 13.7068C12.9024 13.3163 12.9024 12.6833 13.2929 12.2927L17.2929 8.29273L17.3691 8.22437Z" fill="#AAAAAA"/>
</svg>
