<svg width="24" height="24" viewBox="0 0 24 24" fill="none" xmlns="http://www.w3.org/2000/svg">
<path d="M19.5859 8L21 9.41406V14.5859L19.5859 16H4.41406L3 14.5859V9.41406L4.41406 8H19.5859Z" stroke="#AAAAAA" stroke-width="2"/>
<rect x="5" y="11" width="4" height="2" rx="1" fill="#AAAAAA"/>
<path d="M4 16C4 15.4477 4.44772 15 5 15H8C8.55228 15 9 15.4477 9 16V18C9 18.5523 8.55228 19 8 19H5C4.44772 19 4 18.5523 4 18V16Z" fill="#AAAAAA"/>
<path d="M15 16C15 15.4477 15.4477 15 16 15H19C19.5523 15 20 15.4477 20 16V18C20 18.5523 19.5523 19 19 19H16C15.4477 19 15 18.5523 15 18V16Z" fill="#AAAAAA"/>
<path d="M16.1716 10L17.8284 10L19 11.1716L19 12.8284L17.8284 14H16.1716L15 12.8284L15 11.1716L16.1716 10Z" fill="#AAAAAA"/>
</svg>
