<svg width="30" height="30" viewBox="0 0 30 30" fill="none" xmlns="http://www.w3.org/2000/svg">
<path d="M24.4822 10L26.2498 11.7676V18.2324L24.4822 20H5.51735L3.74977 18.2324V11.7676L5.51735 10H24.4822Z" stroke="black" stroke-width="2.5"/>
<rect x="6.25" y="13.75" width="5" height="2.5" rx="1.25" fill="black"/>
<path d="M5 20C5 19.3096 5.55964 18.75 6.25 18.75H10C10.6904 18.75 11.25 19.3096 11.25 20V22.5C11.25 23.1904 10.6904 23.75 10 23.75H6.25C5.55964 23.75 5 23.1904 5 22.5V20Z" fill="black"/>
<path d="M18.75 20C18.75 19.3096 19.3096 18.75 20 18.75H23.75C24.4404 18.75 25 19.3096 25 20V22.5C25 23.1904 24.4404 23.75 23.75 23.75H20C19.3096 23.75 18.75 23.1904 18.75 22.5V20Z" fill="black"/>
<path d="M20.2145 12.5L22.2855 12.5L23.75 13.9645L23.75 16.0355L22.2855 17.5H20.2145L18.75 16.0355L18.75 13.9645L20.2145 12.5Z" fill="black"/>
</svg>
