<svg width="30" height="30" viewBox="0 0 30 30" fill="none" xmlns="http://www.w3.org/2000/svg">
<path d="M22.1055 2.50586C22.3917 2.53421 22.661 2.66101 22.8662 2.86621L24.6338 4.63379C24.8682 4.86817 25 5.18613 25 5.51758V24.4824L24.9941 24.6055C24.9658 24.8917 24.839 25.161 24.6338 25.3662L22.8662 27.1338L22.7744 27.2168C22.5837 27.3731 22.3509 27.4698 22.1055 27.4941L21.9824 27.5H8.01758L7.89453 27.4941C7.64911 27.4698 7.41634 27.3731 7.22559 27.2168L7.13379 27.1338L5.36621 25.3662C5.16101 25.161 5.03421 24.8917 5.00586 24.6055L5 24.4824V5.51758C5.00005 5.18613 5.13183 4.86817 5.36621 4.63379L7.13379 2.86621C7.33899 2.66101 7.60825 2.53421 7.89453 2.50586L8.01758 2.5H21.9824L22.1055 2.50586ZM7.5 6.03516V23.9648L8.53516 25H21.4648L22.5 23.9648V6.03516L21.4648 5H8.53516L7.5 6.03516ZM16.418 13.7559C16.7041 13.7843 16.9736 13.9111 17.1787 14.1162L19.0088 15.9463C19.2432 16.1807 19.375 16.4995 19.375 16.8311V19.4189L19.3691 19.543C19.3407 19.8291 19.2139 20.0986 19.0088 20.3037L17.1787 22.1338L17.0869 22.2168C16.8962 22.3731 16.6634 22.4698 16.418 22.4941L16.2939 22.5H13.7061L13.582 22.4941C13.3366 22.4698 13.1038 22.3731 12.9131 22.2168L12.8213 22.1338L10.9912 20.3037C10.7861 20.0986 10.6593 19.8291 10.6309 19.543L10.625 19.4189V16.8311C10.625 16.4995 10.7568 16.1807 10.9912 15.9463L12.8213 14.1162C13.0264 13.9111 13.2959 13.7843 13.582 13.7559L13.7061 13.75H16.2939L16.418 13.7559ZM13.125 17.3486V18.9014L14.2236 20H15.7764L16.875 18.9014V17.3486L15.7764 16.25H14.2236L13.125 17.3486ZM15.5176 7.5C15.8491 7.5 16.167 7.63185 16.4014 7.86621L17.1338 8.59863C17.3682 8.83304 17.5 9.15095 17.5 9.48242V10.5176C17.5 10.8491 17.3682 11.167 17.1338 11.4014L16.4014 12.1338C16.167 12.3682 15.8491 12.5 15.5176 12.5H14.4824C14.1509 12.5 13.833 12.3682 13.5986 12.1338L12.8662 11.4014C12.6318 11.167 12.5 10.8491 12.5 10.5176V9.48242C12.5 9.15095 12.6318 8.83304 12.8662 8.59863L13.5986 7.86621C13.833 7.63185 14.1509 7.5 14.4824 7.5H15.5176Z" fill="black"/>
</svg>
