<svg width="24" height="24" viewBox="0 0 24 24" fill="none" xmlns="http://www.w3.org/2000/svg">
<path d="M17.6846 2.00488C17.9135 2.0276 18.1289 2.12886 18.293 2.29297L19.707 3.70703C19.8945 3.89453 20 4.1489 20 4.41406V19.5859L19.9951 19.6846C19.9724 19.9135 19.8711 20.1289 19.707 20.293L18.293 21.707L18.2197 21.7734C18.0672 21.8985 17.8809 21.9756 17.6846 21.9951L17.5859 22H6.41406C6.1489 22 5.89453 21.8945 5.70703 21.707L4.29297 20.293C4.12886 20.1289 4.0276 19.9135 4.00488 19.6846L4 19.5859V4.41406C4.00004 4.1489 4.10547 3.89453 4.29297 3.70703L5.70703 2.29297C5.89453 2.10547 6.1489 2.00004 6.41406 2H17.5859L17.6846 2.00488ZM6 4.82812V19.1719L6.82812 20H17.1719L18 19.1719V4.82812L17.1719 4H6.82812L6 4.82812ZM13.0352 11C13.3003 11 13.5547 11.1056 13.7422 11.293L15.207 12.7578C15.3944 12.9453 15.5 13.1997 15.5 13.4648V15.5352L15.4951 15.6348C15.4723 15.8635 15.3709 16.0782 15.207 16.2422L13.7422 17.707C13.5782 17.8709 13.3635 17.9723 13.1348 17.9951L13.0352 18H10.9648L10.8652 17.9951C10.6692 17.9756 10.4834 17.8983 10.3311 17.7734L10.2578 17.707L8.79297 16.2422C8.60555 16.0547 8.5 15.8003 8.5 15.5352V13.4648C8.5 13.1997 8.60555 12.9453 8.79297 12.7578L10.2578 11.293C10.4218 11.1291 10.6365 11.0277 10.8652 11.0049L10.9648 11H13.0352ZM10.5 13.8789V15.1211L11.3789 16H12.6211L13.5 15.1211V13.8789L12.6211 13H11.3789L10.5 13.8789ZM12.4141 6C12.6792 6 12.9336 6.10548 13.1211 6.29297L13.707 6.87891C13.8945 7.06644 14 7.32076 14 7.58594V8.41406C14 8.67924 13.8945 8.93356 13.707 9.12109L13.1211 9.70703C12.9336 9.89452 12.6792 10 12.4141 10H11.5859C11.3208 10 11.0664 9.89452 10.8789 9.70703L10.293 9.12109C10.1055 8.93356 10 8.67924 10 8.41406V7.58594C10 7.32076 10.1055 7.06644 10.293 6.87891L10.8789 6.29297C11.0664 6.10548 11.3208 6 11.5859 6H12.4141Z" fill="#AAAAAA"/>
</svg>
