<svg width="24" height="24" viewBox="0 0 24 24" fill="none" xmlns="http://www.w3.org/2000/svg">
<path d="M19.0853 4C19.3504 4 19.6048 4.10555 19.7923 4.29297L20.3216 4.82129C20.4385 4.9382 20.524 5.08288 20.5716 5.24121L21.7581 9.19434C21.8978 9.65995 21.6821 10.1585 21.2474 10.376L20.2103 10.8945C20.0717 10.9637 19.9188 10.9999 19.764 11H18.7991L19.9251 18.501C19.9722 18.8146 19.8671 19.1321 19.6429 19.3564L19.2269 19.7734C19.0817 19.9185 18.8843 19.9999 18.679 20C18.2906 19.9999 17.9615 19.7122 17.9105 19.3271L17.3392 15H6.66921L6.09011 19.3271C6.03849 19.7123 5.70915 20 5.32057 20C5.11506 19.9999 4.91806 19.9178 4.77272 19.7725L4.35573 19.3564C4.13176 19.1322 4.02746 18.8145 4.07448 18.501L5.19948 11H4.23561C4.08048 11 3.92711 10.9639 3.78834 10.8945L2.75221 10.376C2.31755 10.1585 2.10184 9.6599 2.24147 9.19434L3.42702 5.24121C3.47456 5.08286 3.56111 4.93822 3.67799 4.82129L4.20631 4.29297C4.39369 4.1056 4.64838 4.00018 4.91335 4H19.0853ZM6.92898 13H17.0696L16.7991 11H7.19949L6.92898 13ZM5.26979 6.05664L4.3987 8.96289L4.47096 9H19.5267L19.6009 8.96191L18.7278 6.05664L18.6722 6H5.32741L5.26979 6.05664Z" fill="#AAAAAA"/>
</svg>
