<svg width="30" height="30" viewBox="0 0 30 30" fill="none" xmlns="http://www.w3.org/2000/svg">
<path d="M23.8563 5C24.1877 5 24.5056 5.13194 24.74 5.36621L25.4017 6.02661C25.5478 6.17275 25.6547 6.3536 25.7142 6.55151L27.1973 11.4929C27.3719 12.0749 27.1023 12.6981 26.5589 12.97L25.2625 13.6182C25.0893 13.7046 24.8982 13.7499 24.7046 13.75H23.4986L24.9061 23.1262C24.9649 23.5183 24.8336 23.9152 24.5533 24.1956L24.0333 24.7168C23.8518 24.8982 23.605 24.9999 23.3484 25C22.863 24.9998 22.4515 24.6402 22.3877 24.1589L21.6736 18.75H8.33619L7.61231 24.1589C7.54779 24.6403 7.13612 25 6.6504 25C6.3935 24.9998 6.14725 24.8972 5.96558 24.7156L5.44434 24.1956C5.16438 23.9152 5.03401 23.5181 5.09278 23.1262L6.49903 13.75H5.29419C5.10027 13.7499 4.90856 13.7049 4.73511 13.6182L3.43994 12.97C2.89661 12.6981 2.62698 12.0749 2.80151 11.4929L4.28345 6.55151C4.34288 6.35358 4.45106 6.17278 4.59717 6.02661L5.25757 5.36621C5.49179 5.13199 5.81015 5.00023 6.14136 5H23.8563ZM8.6609 16.25H21.3367L20.9986 13.75H8.99904L8.6609 16.25ZM6.58692 7.5708L5.49805 11.2036L5.58838 11.25H24.408L24.5008 11.2024L23.4095 7.5708L23.3399 7.5H6.65894L6.58692 7.5708Z" fill="black"/>
</svg>
