<svg width="24" height="24" viewBox="0 0 24 24" fill="none" xmlns="http://www.w3.org/2000/svg">
<path d="M15.9023 3.00488C15.997 3.01391 16.0901 3.03587 16.1787 3.07129L20.3711 4.74902C20.7507 4.90085 20.9999 5.26796 21 5.67676V8.32324L20.9883 8.47363C20.9355 8.82017 20.7034 9.11805 20.3711 9.25098L16.1787 10.9287L16.0889 10.96C16.028 10.9778 15.9655 10.9891 15.9023 10.9951L15.8076 11H13V18.0078C13.1953 18.0315 13.3806 18.1121 13.5312 18.2412L14.6504 19.2002C14.872 19.3902 15 19.668 15 19.96V20.3818C15 20.7606 14.786 21.107 14.4473 21.2764L13.2109 21.8945L13.1045 21.9404C12.9956 21.9799 12.8801 22 12.7637 22H11.2363L11.1201 21.9932C11.0435 21.9842 10.9681 21.9667 10.8955 21.9404L10.7891 21.8945L9.55273 21.2764C9.21398 21.107 9 20.7606 9 20.3818V19.96C9 19.668 9.12796 19.3902 9.34961 19.2002L10.4688 18.2412C10.6194 18.1121 10.8048 18.0324 11 18.0088V11H8.19238C8.09706 11 8.00229 10.9867 7.91113 10.96L7.82129 10.9287L3.62891 9.25098C3.29659 9.11805 3.06446 8.82017 3.01172 8.47363L3 8.32324V5.67676C3.00011 5.26796 3.24933 4.90085 3.62891 4.74902L7.82129 3.07129C7.9393 3.02411 8.06529 3.00003 8.19238 3H15.8076L15.9023 3.00488ZM5 6.35352V7.64551L8.38574 9H15.6143L19 7.64551V6.35352L15.6143 5H8.38574L5 6.35352Z" fill="#AAAAAA"/>
</svg>
