<svg width="30" height="30" viewBox="0 0 30 30" fill="none" xmlns="http://www.w3.org/2000/svg">
<path d="M19.8779 3.75586C19.9963 3.76715 20.1128 3.79553 20.2236 3.83984L25.4639 5.93555C25.9384 6.12538 26.25 6.58555 26.25 7.09668V10.4033L26.2354 10.5928C26.1692 11.0256 25.879 11.3984 25.4639 11.5645L20.2236 13.6602L20.1113 13.6992C20.0351 13.7216 19.957 13.7366 19.8779 13.7441L19.7588 13.75H16.25V22.5107C16.494 22.5403 16.7258 22.6394 16.9141 22.8008L18.3135 24.001C18.5905 24.2385 18.75 24.5853 18.75 24.9502V25.4775L18.7373 25.6523C18.6804 26.0554 18.4292 26.4104 18.0586 26.5957L16.5137 27.3682L16.3809 27.4248C16.29 27.4578 16.1956 27.48 16.0996 27.4912L15.9551 27.5H14.0449L13.9004 27.4912C13.8044 27.48 13.71 27.4578 13.6191 27.4248L13.4863 27.3682L11.9414 26.5957C11.5708 26.4104 11.3196 26.0554 11.2627 25.6523L11.25 25.4775V24.9502C11.25 24.5853 11.4095 24.2385 11.6865 24.001L13.0859 22.8008C13.2742 22.6394 13.506 22.5403 13.75 22.5107V13.75H10.2412L10.1221 13.7441C10.043 13.7366 9.96488 13.7216 9.88867 13.6992L9.77637 13.6602L4.53613 11.5645C4.12097 11.3984 3.83078 11.0256 3.76465 10.5928L3.75 10.4033V7.09668C3.75 6.58555 4.06156 6.12538 4.53613 5.93555L9.77637 3.83984C9.88716 3.79553 10.0037 3.76715 10.1221 3.75586L10.2412 3.75H19.7588L19.8779 3.75586ZM6.25 7.94141V9.55762L10.4805 11.25H19.5195L23.75 9.55762V7.94141L19.5195 6.25H10.4805L6.25 7.94141Z" fill="black"/>
</svg>
