<svg width="24" height="24" viewBox="0 0 24 24" fill="none" xmlns="http://www.w3.org/2000/svg">
<path d="M17.3691 15.2245C17.7619 14.9042 18.3409 14.9268 18.707 15.2929C19.0731 15.659 19.0957 16.238 18.7754 16.6308L18.707 16.707L16.707 18.707C16.3165 19.0975 15.6835 19.0975 15.293 18.707C14.9025 18.3165 14.9025 17.6834 15.293 17.2929L17.293 15.2929L17.3691 15.2245Z" fill="#AAAAAA"/>
<path d="M16.3691 12.2245C16.7619 11.9042 17.3409 11.9268 17.707 12.2929C18.0731 12.659 18.0957 13.238 17.7754 13.6308L17.707 13.707L13.707 17.707C13.3165 18.0975 12.6835 18.0975 12.293 17.707C11.9025 17.3165 11.9025 16.6834 12.293 16.2929L16.293 12.2929L16.3691 12.2245Z" fill="#AAAAAA"/>
<path fill-rule="evenodd" clip-rule="evenodd" d="M18.0654 2.09955C18.5217 1.87865 19.0801 2.03465 19.3516 2.47553C19.6229 2.91654 19.5111 3.48603 19.1084 3.79389L19.0244 3.8515L15.5332 5.99994H19.0859L19.1846 6.00482C19.4135 6.02754 19.6289 6.1288 19.793 6.29291L21.707 8.20697C21.8945 8.39447 22 8.64885 22 8.914V19.0859L21.9951 19.1845C21.9724 19.4134 21.8711 19.6288 21.707 19.7929L19.793 21.707L19.7197 21.7734C19.5672 21.8984 19.3809 21.9756 19.1846 21.9951L19.0859 21.9999H4.91406L4.81543 21.9951C4.61913 21.9756 4.43284 21.8984 4.28027 21.7734L4.20703 21.707L2.29297 19.7929C2.12888 19.6288 2.02761 19.4134 2.00488 19.1845L2 19.0859V8.914C2.00004 8.64885 2.10549 8.39447 2.29297 8.20697L4.20703 6.29291C4.37114 6.1288 4.58649 6.02754 4.81543 6.00482L4.91406 5.99994H8.4668L4.97559 3.8515L4.8916 3.79389C4.48886 3.48603 4.37707 2.91654 4.64844 2.47553C4.91994 2.03465 5.4783 1.87865 5.93457 2.09955L6.02441 2.14838L12 5.82611L17.9756 2.14838L18.0654 2.09955ZM4 9.32807V18.6718L5.32812 19.9999H18.6719L20 18.6718V9.32807L18.6719 7.99994H5.32812L4 9.32807Z" fill="#AAAAAA"/>
</svg>
