<svg width="30" height="30" viewBox="0 0 30 30" fill="none" xmlns="http://www.w3.org/2000/svg">
<path d="M21.7114 19.0308C22.2024 18.6304 22.9261 18.6586 23.3838 19.1163C23.8414 19.5739 23.8697 20.2977 23.4692 20.7886L23.3838 20.8838L20.8838 23.3838C20.3956 23.8719 19.6044 23.8719 19.1162 23.3838C18.6281 22.8957 18.6281 22.1044 19.1162 21.6163L21.6162 19.1163L21.7114 19.0308Z" fill="black"/>
<path d="M20.4614 15.2808C20.9524 14.8804 21.6761 14.9086 22.1338 15.3663C22.5914 15.8239 22.6197 16.5477 22.2192 17.0386L22.1338 17.1338L17.1338 22.1338C16.6456 22.6219 15.8544 22.6219 15.3662 22.1338C14.8781 21.6457 14.8781 20.8544 15.3662 20.3663L20.3662 15.3663L20.4614 15.2808Z" fill="black"/>
<path fill-rule="evenodd" clip-rule="evenodd" d="M22.5818 2.62456C23.1521 2.34844 23.8501 2.54343 24.1895 3.09453C24.5287 3.6458 24.3889 4.35766 23.8855 4.74248L23.7805 4.8145L19.4165 7.50005H23.8574L23.9807 7.50615C24.2669 7.53455 24.5361 7.66113 24.7412 7.86626L27.1338 10.2588C27.3681 10.4932 27.5 10.8112 27.5 11.1426V23.8575L27.4939 23.9808C27.4655 24.2669 27.3389 24.5361 27.1338 24.7413L24.7412 27.1338L24.6497 27.2168C24.459 27.3732 24.2261 27.4696 23.9807 27.4939L23.8574 27.5H6.14258L6.01929 27.4939C5.77392 27.4696 5.54105 27.3732 5.35034 27.2168L5.25879 27.1338L2.86621 24.7413C2.66109 24.5361 2.53452 24.2669 2.5061 23.9808L2.5 23.8575V11.1426C2.50005 10.8112 2.63186 10.4932 2.86621 10.2588L5.25879 7.86626C5.46392 7.66113 5.73311 7.53455 6.01929 7.50615L6.14258 7.50005H10.5835L6.21948 4.8145L6.1145 4.74248C5.61107 4.35766 5.47134 3.6458 5.81055 3.09453C6.14992 2.54343 6.84788 2.34844 7.41821 2.62456L7.53052 2.68559L15 7.28276L22.4695 2.68559L22.5818 2.62456ZM5 11.6602V23.3399L6.66016 25H23.3398L25 23.3399V11.6602L23.3398 10H6.66016L5 11.6602Z" fill="black"/>
</svg>
