<svg width="24" height="24" viewBox="0 0 24 24" fill="none" xmlns="http://www.w3.org/2000/svg">
<path d="M17.5859 3L18.9609 4.375L17.5381 19.5479L16.0859 21H7.91406L6.46191 19.5479L5.03906 4.375L6.41406 3H17.5859Z" stroke="#AAAAAA" stroke-width="2"/>
<path d="M13.791 10C13.316 10 12.8605 9.8113 12.5246 9.47542C12.1887 9.13953 12 8.68397 12 8.20896C12 7.31865 12.9958 5.97195 13.5023 5.34444C13.6528 5.15809 13.9293 5.15809 14.0797 5.34444C14.5863 5.97195 15.5821 7.31865 15.5821 8.20896C15.5821 8.68397 15.3934 9.13953 15.0575 9.47542C14.7216 9.8113 14.2661 10 13.791 10Z" fill="#AAAAAA"/>
<path d="M7.21191 14.5703C9.02133 14.2129 10.8896 14.2794 12.6689 14.7646C14.3881 15.2335 16.1802 15.3668 17.9482 15.1611L17.5371 19.5479L16.0859 21H7.91406L6.46191 19.5479H6.46289L6.0166 14.8057L7.21191 14.5703Z" stroke="#AAAAAA" stroke-width="2"/>
</svg>
