<svg width="30" height="30" viewBox="0 0 30 30" fill="none" xmlns="http://www.w3.org/2000/svg">
<path d="M21.9824 3.75L23.7002 5.46875L21.9229 24.4346L20.1074 26.25H9.89258L8.07715 24.4346L6.2998 5.46875L8.01758 3.75H21.9824Z" stroke="black" stroke-width="2.5"/>
<path d="M17.2388 12.5C16.645 12.5 16.0756 12.2641 15.6557 11.8443C15.2359 11.4244 15 10.855 15 10.2612C15 9.14831 16.2447 7.46494 16.8779 6.68055C17.066 6.44761 17.4116 6.44761 17.5997 6.68055C18.2329 7.46494 19.4776 9.14831 19.4776 10.2612C19.4776 10.855 19.2417 11.4244 18.8219 11.8443C18.402 12.2641 17.8326 12.5 17.2388 12.5Z" fill="black"/>
<path d="M9.01562 18.2129C11.2773 17.7661 13.6118 17.8485 15.8359 18.4551C17.9851 19.0412 20.2253 19.2083 22.4355 18.9512L21.9219 24.4355L20.1074 26.25H9.89258L8.07812 24.4355L7.52148 18.5068L9.01562 18.2129Z" stroke="black" stroke-width="2.5"/>
</svg>
