<svg width="30" height="30" viewBox="0 0 30 30" fill="none" xmlns="http://www.w3.org/2000/svg">
<path d="M15 21.25C15.5524 21.25 15.9715 21.4265 16.335 21.79C16.6985 22.1535 16.875 22.5726 16.875 23.125C16.875 23.6774 16.6985 24.0965 16.335 24.46C15.9715 24.8235 15.5524 25 15 25C14.4476 25 14.0285 24.8235 13.665 24.46C13.3015 24.0965 13.125 23.6774 13.125 23.125C13.125 22.5726 13.3015 22.1535 13.665 21.79C14.0285 21.4265 14.4476 21.25 15 21.25ZM15.001 13.75C16.7532 13.7493 18.3671 14.0814 19.8564 14.7373C20.9788 15.2316 21.9847 15.8539 22.8818 16.5996L22.0625 17.4199L22.0342 17.4238C21.9959 17.4245 21.9425 17.4107 21.8955 17.374C21.1256 16.7735 20.2825 16.2771 19.3701 15.8838C17.9985 15.2926 16.5373 15 15 15C13.4627 15 12.0015 15.2926 10.6299 15.8838C9.72263 16.2749 8.88364 16.7683 8.11719 17.3643C8.06974 17.401 8.01549 17.415 7.97656 17.4141L7.94824 17.4092L7.11426 16.5557C8.01129 15.8231 9.01725 15.2118 10.1387 14.7256C11.6291 14.0794 13.2455 13.7508 15.001 13.75ZM15 6.25C17.7986 6.25 20.3892 6.7719 22.7861 7.80469C24.8145 8.67869 26.6212 9.83304 28.2129 11.2676L27.375 12.1074C27.3744 12.1077 27.3694 12.1092 27.3594 12.1094C27.3366 12.1096 27.306 12.1014 27.2803 12.0791C25.7954 10.7892 24.1304 9.74947 22.29 8.96094C20.0126 7.98513 17.5778 7.50089 15 7.5C12.422 7.49917 9.98787 7.98327 7.71094 8.96094C5.87129 9.75091 4.20548 10.791 2.71973 12.0801C2.69416 12.1023 2.66426 12.1106 2.6416 12.1104L2.62598 12.1084L1.78613 11.2676C3.378 9.83282 5.18529 8.67879 7.21387 7.80469C9.6108 6.7719 12.2014 6.25 15 6.25Z" stroke="black" stroke-width="2.5"/>
</svg>
