<svg width="24" height="24" viewBox="0 0 24 24" fill="none" xmlns="http://www.w3.org/2000/svg">
<path d="M12 17C12.4419 17 12.7776 17.1408 13.0684 17.4316C13.3592 17.7224 13.5 18.0581 13.5 18.5C13.5 18.9419 13.3592 19.2776 13.0684 19.5684C12.7776 19.8592 12.4419 20 12 20C11.5581 20 11.2224 19.8592 10.9316 19.5684C10.6408 19.2776 10.5 18.9419 10.5 18.5C10.5 18.0581 10.6408 17.7224 10.9316 17.4316C11.2224 17.1408 11.5581 17 12 17ZM12 11C13.4018 10.9994 14.6932 11.2653 15.8848 11.79C16.7826 12.1855 17.588 12.6828 18.3057 13.2793L17.6494 13.9355C17.6476 13.9362 17.6403 13.9392 17.627 13.9395C17.5964 13.9399 17.554 13.9285 17.5166 13.8994C16.9006 13.419 16.2261 13.0217 15.4961 12.707C14.3988 12.2341 13.2299 12 12 12C10.7701 12 9.60119 12.2341 8.50391 12.707C7.7781 13.0199 7.1073 13.4148 6.49414 13.8916C6.45633 13.9209 6.41299 13.9323 6.38184 13.9316L6.3584 13.9277L5.69141 13.2441C6.4089 12.6582 7.21342 12.1692 8.11035 11.7803C9.30259 11.2633 10.5957 11.0007 12 11ZM12 5C14.2389 5 16.3119 5.41688 18.2295 6.24316C19.8523 6.94242 21.2969 7.86692 22.5703 9.01465L21.9004 9.68555C21.8999 9.68574 21.895 9.68741 21.8867 9.6875C21.8685 9.68759 21.8446 9.68081 21.8242 9.66309C20.6364 8.63124 19.3042 7.79975 17.832 7.16895C16.01 6.3883 14.0622 6.00071 12 6C9.93741 5.99933 7.98964 6.38669 6.16797 7.16895C4.69637 7.80091 3.3643 8.6329 2.17578 9.66406C2.15533 9.68181 2.13141 9.68868 2.11328 9.68848C2.10524 9.68836 2.10106 9.68671 2.10059 9.68652L1.42871 9.01465C2.70227 7.8667 4.14752 6.94251 5.77051 6.24316C7.6881 5.41688 9.76109 5 12 5Z" stroke="#AAAAAA" stroke-width="2"/>
</svg>
