<svg width="25" height="24" viewBox="0 0 25 24" fill="none" xmlns="http://www.w3.org/2000/svg">
<path d="M19.821 5.91216H19.8214L13.8476 2.39807C12.9454 1.86731 11.8338 1.86731 10.9315 2.39807L4.95795 5.91216C4.05594 6.44292 3.5 7.42395 3.5 8.48548V15.5143C3.5 16.5758 4.05594 17.5569 4.95795 18.0876L10.9315 21.6019C11.8338 22.1327 12.9454 22.1327 13.8476 21.6019L15.328 20.731V16.6911C15.328 16.3735 15.464 15.7248 15.6948 15.3767C15.756 15.2758 15.8245 15.1966 15.8995 15.1527L17.6597 14.1169C17.8728 13.9916 18.1247 14.0723 18.245 14.2587C18.304 14.3329 18.3404 14.4274 18.3404 14.5346V18.9588L19.821 18.0876C20.723 17.5569 21.279 16.5758 21.279 15.5143V8.48548C21.279 7.42395 20.723 6.44292 19.821 5.91216ZM11.0671 19.3913C11.0671 19.7331 10.7031 19.9464 10.412 19.7755L5.29496 16.7745C4.95709 16.5765 4.74893 16.2102 4.74893 15.814V9.8323C4.74893 9.49056 5.11288 9.27725 5.40421 9.44812L10.521 12.4492C10.8589 12.6474 11.0671 13.0134 11.0671 13.4098V19.3913ZM15.8204 6.95313L14.328 7.28042C13.8494 7.38522 13.4313 7.68233 13.1674 8.10523L12.5692 9.0635C12.4852 9.19783 12.2936 9.19783 12.2093 9.0635L11.6112 8.10523C11.3472 7.68233 10.9292 7.38522 10.4506 7.28042L8.95815 6.95313C8.73297 6.9039 8.73297 6.57376 8.95815 6.52453L10.4506 6.19723C10.9292 6.09244 11.3472 5.79533 11.6112 5.37242L12.2093 4.41416C12.2934 4.27982 12.4849 4.27982 12.5692 4.41416L13.1674 5.37242C13.4313 5.79533 13.8494 6.09244 14.328 6.19723L15.8204 6.52453C16.0458 6.57376 16.0458 6.9039 15.8204 6.95313Z" fill="white"/>
<path d="M8.04769 12.9061L8.27631 13.7639C8.37199 14.1225 8.57583 14.4809 8.8342 14.7439L9.45241 15.3737C9.54809 15.4715 9.54809 15.6299 9.45241 15.6153L8.8342 15.5214C8.57583 15.4818 8.37199 15.6013 8.27631 15.848L8.04769 16.4381C8.01235 16.5298 7.87659 16.4501 7.84126 16.3171L7.61263 15.4593C7.51696 15.1007 7.31311 14.7425 7.05475 14.4793L6.43675 13.8499C6.34107 13.7521 6.34107 13.5937 6.43675 13.6084L7.05518 13.7022C7.31354 13.7418 7.51739 13.6224 7.61306 13.3756L7.84169 12.7855C7.87703 12.6939 8.01278 12.7735 8.04812 12.9065L8.04769 12.9061Z" fill="white"/>
</svg>
