<svg width="180" height="65" viewBox="0 0 180 65" fill="none" xmlns="http://www.w3.org/2000/svg">
<g clip-path="url(#clip0_187_5408)">
<path d="M53.0433 12.715H53.0447L33.6298 1.29423C30.6976 -0.430759 27.0847 -0.430759 24.1525 1.29423L4.73833 12.715C1.80681 14.44 0 17.6283 0 21.0783V43.922C0 47.372 1.80681 50.5603 4.73833 52.2853L24.1525 63.7067C27.0847 65.4317 30.6976 65.4317 33.6298 63.7067L38.441 60.8761V47.7467C38.441 46.7142 38.8829 44.606 39.633 43.4747C39.8318 43.1469 40.0545 42.8895 40.2983 42.7466L46.0191 39.3805C46.7117 38.9731 47.5304 39.2355 47.9212 39.8413C48.1131 40.0823 48.2314 40.3895 48.2314 40.7379V55.1166L53.0433 52.2853C55.9748 50.5603 57.7816 47.372 57.7816 43.922V21.0783C57.7816 17.6283 55.9748 14.44 53.0433 12.715ZM24.593 56.5224C24.593 57.633 23.4101 58.3263 22.464 57.771L5.83363 48.0176C4.73553 47.3741 4.05903 46.1838 4.05903 44.8961V25.4555C4.05903 24.3448 5.24186 23.6516 6.18869 24.2069L22.8184 33.9603C23.9165 34.6045 24.593 35.794 24.593 37.0825V56.5224ZM40.0412 16.0981L35.1909 17.1619C33.6355 17.5025 32.2768 18.4681 31.419 19.8425L29.4749 22.9569C29.2018 23.3934 28.5792 23.3934 28.3053 22.9569L26.3613 19.8425C25.5034 18.4681 24.1448 17.5025 22.5894 17.1619L17.739 16.0981C17.0072 15.9382 17.0072 14.8652 17.739 14.7052L22.5894 13.6415C24.1448 13.3009 25.5034 12.3353 26.3613 10.9609L28.3053 7.84649C28.5785 7.40991 29.2011 7.40991 29.4749 7.84649L31.419 10.9609C32.2768 12.3353 33.6355 13.3009 35.1909 13.6415L40.0412 14.7052C40.7738 14.8652 40.7738 15.9382 40.0412 16.0981Z" fill="black"/>
<path d="M14.78 35.4452L15.5231 38.2332C15.834 39.3986 16.4965 40.5633 17.3362 41.418L19.3454 43.4651C19.6563 43.7829 19.6563 44.2977 19.3454 44.2501L17.3362 43.9451C16.4965 43.8164 15.834 44.2046 15.5231 45.0066L14.78 46.9243C14.6652 47.2222 14.224 46.9634 14.1091 46.5311L13.3661 43.7431C13.0552 42.5777 12.3927 41.4137 11.553 40.5584L9.54448 38.5127C9.23354 38.1948 9.23354 37.68 9.54448 37.7277L11.5544 38.0327C12.3941 38.1614 13.0566 37.7732 13.3675 36.9711L14.1105 35.0535C14.2254 34.7555 14.6666 35.0144 14.7814 35.4467L14.78 35.4452Z" fill="black"/>
<path d="M95.3516 25.0109C95.3516 25.3934 94.9139 25.5989 94.626 25.3522C94.0189 24.8317 93.3599 24.3659 92.6196 23.9855C90.8836 23.0939 88.9276 22.6481 86.7517 22.6481C83.907 22.6481 81.3894 23.3534 79.1939 24.7535C76.9977 26.1535 75.2616 28.0669 73.9849 30.488C72.7083 32.9091 72.0696 35.6523 72.0696 38.7063C72.0696 41.7602 72.7083 44.4408 73.9849 46.8619C75.2616 49.283 77.0082 51.1964 79.2247 52.5965C81.4412 53.9965 83.9532 54.7019 86.7517 54.7019C88.9269 54.7019 90.8934 54.2298 92.6554 53.2969C93.4082 52.8973 94.0735 52.413 94.6828 51.8755C94.9692 51.6224 95.4132 51.8271 95.4132 52.2125V53.1589C95.4132 53.6559 95.8103 54.0591 96.2998 54.0591H102.687C103.176 54.0591 103.573 53.6559 103.573 53.1589V8.89579C103.573 8.39877 103.176 7.99561 102.687 7.99561H96.2382C95.7486 7.99561 95.3516 8.39877 95.3516 8.89579V25.0109ZM94.8817 43.0038C94.2332 44.2588 93.3347 45.2336 92.1805 45.9383C91.0313 46.638 89.6832 46.9856 88.1362 46.9856C86.6705 46.9856 85.3532 46.638 84.1836 45.9383C83.0092 45.2329 82.1002 44.2581 81.4517 43.0038C80.8032 41.7545 80.4818 40.2976 80.4818 38.643C80.4818 36.9884 80.8032 35.6047 81.4517 34.376C82.1002 33.1424 82.9987 32.1675 84.1528 31.4415C85.302 30.7205 86.6502 30.3629 88.1972 30.3629C89.7441 30.3629 91.0313 30.7106 92.1805 31.4103C93.3347 32.1156 94.2332 33.0904 94.8817 34.3447C95.5302 35.594 95.8516 37.0303 95.8516 38.643C95.8516 40.2556 95.5302 41.7538 94.8817 43.0038Z" fill="black"/>
<path d="M115.542 23.291H109.032C108.542 23.291 108.146 23.694 108.146 24.1912V53.1584C108.146 53.6555 108.542 54.0586 109.032 54.0586H115.542C116.032 54.0586 116.429 53.6555 116.429 53.1584V24.1912C116.429 23.694 116.032 23.291 115.542 23.291Z" fill="black"/>
<path d="M112.287 8.7627C110.944 8.7627 109.836 9.22914 108.958 10.1627C108.08 11.0963 107.641 12.2262 107.641 13.543C107.641 14.8599 108.08 16.0317 108.958 16.9447C109.836 17.8626 110.945 18.3184 112.287 18.3184C113.63 18.3184 114.785 17.8619 115.642 16.9447C116.5 16.0324 116.93 14.9018 116.93 13.543C116.93 12.1842 116.5 11.0956 115.642 10.1627C114.785 9.22914 113.666 8.7627 112.287 8.7627Z" fill="black"/>
<path d="M140.817 46.1928C139.703 46.6799 138.462 46.9237 137.078 46.9237C135.572 46.9237 134.224 46.5711 133.034 45.8764C131.839 45.171 130.9 44.1962 130.21 42.9419C129.521 41.6869 129.174 40.2563 129.174 38.6436C129.174 37.031 129.521 35.5535 130.21 34.3454C130.9 33.1323 131.839 32.1781 133.034 31.4728C134.224 30.7731 135.572 30.4254 137.078 30.4254C138.417 30.4254 139.642 30.6586 140.75 31.1251C141.6 31.4834 142.361 31.9662 143.026 32.5749C143.37 32.8899 143.902 32.8586 144.227 32.5244L148.275 28.3705C148.612 28.0242 148.627 27.4589 148.288 27.1148C146.954 25.7617 145.415 24.6972 143.672 23.9229C141.66 23.0313 139.464 22.5854 137.079 22.5854C134.025 22.5854 131.257 23.3008 128.766 24.7214C126.279 26.1421 124.323 28.0655 122.898 30.4873C121.478 32.9084 120.763 35.6516 120.763 38.7055C120.763 41.7594 121.478 44.4401 122.898 46.8612C124.322 49.2823 126.268 51.1957 128.735 52.5957C131.201 53.9958 133.984 54.7011 137.079 54.7011C139.464 54.7011 141.66 54.2553 143.672 53.3637C145.42 52.5872 146.993 51.5036 148.392 50.1135C148.739 49.7686 148.727 49.1941 148.384 48.8457L144.307 44.7067C143.976 44.3704 143.437 44.3462 143.095 44.6726C142.426 45.3111 141.665 45.8181 140.817 46.1928Z" fill="black"/>
<path d="M178.085 30.073C176.809 27.7607 175.052 25.9354 172.816 24.598C170.579 23.2605 167.995 22.5864 165.069 22.5864C162.143 22.5864 159.395 23.3017 156.97 24.7224C154.544 26.1431 152.634 28.0565 151.23 30.457C149.83 32.8525 149.126 35.585 149.126 38.6439C149.126 41.7028 149.851 44.5079 151.291 46.924C152.737 49.3451 154.692 51.2486 157.159 52.6273C159.631 54.0067 162.455 54.7014 165.631 54.7014C168.098 54.7014 170.39 54.2556 172.505 53.3639C174.348 52.5846 175.949 51.4804 177.299 50.0512C177.627 49.7042 177.603 49.146 177.268 48.8054L173.67 45.1521C173.335 44.8122 172.792 44.7959 172.449 45.1265C171.663 45.8823 170.771 46.4725 169.773 46.8927C168.516 47.4217 167.117 47.6912 165.57 47.6912C163.854 47.6912 162.348 47.3179 161.051 46.5713C159.754 45.8354 158.763 44.7667 158.074 43.388C157.985 43.2109 157.907 43.0275 157.835 42.8384C157.616 42.2539 158.051 41.6267 158.668 41.6253L178.85 41.5755C179.278 41.5748 179.639 41.2598 179.721 40.8339C179.805 40.403 179.867 40.0027 179.91 39.6351C179.971 39.0542 180.001 38.4946 180.001 37.945C180.001 35.0105 179.363 32.3867 178.086 30.0744L178.085 30.073ZM158.671 35.3788C158.059 35.3802 157.614 34.7616 157.831 34.1807C157.883 34.0399 157.942 33.902 158.005 33.7697C158.654 32.4265 159.583 31.3898 160.799 30.6433C162.014 29.9073 163.434 29.534 165.068 29.534C166.615 29.534 167.922 29.8604 168.99 30.5188C170.057 31.1772 170.869 32.1265 171.436 33.3552C171.552 33.6097 171.657 33.8792 171.752 34.1615C171.945 34.7396 171.508 35.3425 170.907 35.344L158.671 35.3788Z" fill="black"/>
</g>
<defs>
<clipPath id="clip0_187_5408">
<rect width="180" height="65" fill="white"/>
</clipPath>
</defs>
</svg>
