<svg width="24" height="24" viewBox="0 0 24 24" fill="none" xmlns="http://www.w3.org/2000/svg">
<circle cx="12" cy="13" r="3" fill="#AAAAAA"/>
<path fill-rule="evenodd" clip-rule="evenodd" d="M8.85157 3.22265C8.9443 3.08355 9.10042 3 9.26759 3H14.7324C14.8996 3 15.0557 3.08355 15.1484 3.22265L16.3333 5H19.5858C19.851 5 20.1054 5.10536 20.2929 5.29289L21.7071 6.70711C21.8946 6.89464 22 7.149 22 7.41421V18.5858C22 18.851 21.8946 19.1054 21.7071 19.2929L20.2929 20.7071C20.1054 20.8946 19.851 21 19.5858 21H4.41421C4.149 21 3.89464 20.8946 3.70711 20.7071L2.29289 19.2929C2.10536 19.1054 2 18.851 2 18.5858V7.41421C2 7.149 2.10536 6.89464 2.29289 6.70711L3.70711 5.29289C3.89464 5.10536 4.149 5 4.41421 5H7.66667L8.85157 3.22265ZM12 18C14.7614 18 17 15.7614 17 13C17 10.2386 14.7614 8 12 8C9.23858 8 7 10.2386 7 13C7 15.7614 9.23858 18 12 18ZM18 10C18.5523 10 19 9.55228 19 9C19 8.44772 18.5523 8 18 8C17.4477 8 17 8.44772 17 9C17 9.55228 17.4477 10 18 10Z" fill="#AAAAAA"/>
</svg>
