<svg width="24" height="25" viewBox="0 0 24 25" fill="none" xmlns="http://www.w3.org/2000/svg">
<g id="Chat icon">
<path id="Subtract" fill-rule="evenodd" clip-rule="evenodd" d="M15.6858 3.5C16.2158 3.5 16.7242 3.7104 17.0992 4.08497L20.4134 7.39534C20.789 7.77048 21 8.27954 21 8.81037V13.4896C21 14.0205 20.789 14.5295 20.4134 14.9047L17.0992 18.215C16.7242 18.5896 16.2158 18.8 15.6858 18.8H5.85102C5.74454 18.8 5.64245 18.8425 5.56737 18.918L3.85456 20.6406C3.53999 20.9569 3 20.7342 3 20.288V14.3187V14.3V8.81037C3 8.27954 3.21103 7.77048 3.58661 7.39534L6.90084 4.08496C7.27584 3.71039 7.7842 3.5 8.31423 3.5H15.6858ZM15.6 12.5001C16.0971 12.5001 16.5 12.0972 16.5 11.6001C16.5 11.103 16.0971 10.7001 15.6 10.7001C15.1029 10.7001 14.7 11.103 14.7 11.6001C14.7 12.0972 15.1029 12.5001 15.6 12.5001ZM12.9 11.6001C12.9 12.0972 12.4971 12.5001 12 12.5001C11.5029 12.5001 11.1 12.0972 11.1 11.6001C11.1 11.103 11.5029 10.7001 12 10.7001C12.4971 10.7001 12.9 11.103 12.9 11.6001ZM8.4 12.5C8.89706 12.5 9.3 12.0971 9.3 11.6C9.3 11.1029 8.89706 10.7 8.4 10.7C7.90294 10.7 7.5 11.1029 7.5 11.6C7.5 12.0971 7.90294 12.5 8.4 12.5Z" fill="black"/>
</g>
</svg>
