<svg width="24" height="24" viewBox="0 0 24 24" fill="none" xmlns="http://www.w3.org/2000/svg">
<mask id="path-1-inside-1_1296_23553" fill="white">
<path fill-rule="evenodd" clip-rule="evenodd" d="M6.29289 10.2071C6.10536 10.3946 6 10.649 6 10.9142V16.5C6 17.0523 6.44772 17.5 7 17.5H17C17.5523 17.5 18 17.0523 18 16.5V10.9142C18 10.649 17.8946 10.3946 17.7071 10.2071L14.7929 7.29289C14.6054 7.10536 14.351 7 14.0858 7H9.91421C9.649 7 9.39464 7.10536 9.20711 7.29289L6.29289 10.2071ZM5 18C4.44772 18 4 18.4477 4 19V20C4 20.5523 4.44772 21 5 21H19C19.5523 21 20 20.5523 20 20V19C20 18.4477 19.5523 18 19 18H5Z"/>
</mask>
<path d="M6.29289 10.2071L4.87868 8.79289L6.29289 10.2071ZM17.7071 10.2071L16.2929 11.6213L16.2929 11.6213L17.7071 10.2071ZM14.7929 7.29289L13.3787 8.70711V8.70711L14.7929 7.29289ZM9.20711 7.29289L10.6213 8.70711L10.6213 8.70711L9.20711 7.29289ZM8 10.9142C8 11.1794 7.89464 11.4338 7.70711 11.6213L4.87868 8.79289C4.31607 9.3555 4 10.1186 4 10.9142H8ZM8 16.5V10.9142H4V16.5H8ZM7 15.5C7.55229 15.5 8 15.9477 8 16.5H4C4 18.1569 5.34314 19.5 7 19.5V15.5ZM17 15.5H7V19.5H17V15.5ZM16 16.5C16 15.9477 16.4477 15.5 17 15.5V19.5C18.6569 19.5 20 18.1569 20 16.5H16ZM16 10.9142V16.5H20V10.9142H16ZM16.2929 11.6213C16.1054 11.4338 16 11.1794 16 10.9142H20C20 10.1186 19.6839 9.3555 19.1213 8.79289L16.2929 11.6213ZM13.3787 8.70711L16.2929 11.6213L19.1213 8.79289L16.2071 5.87868L13.3787 8.70711ZM14.0858 9C13.8206 9 13.5662 8.89464 13.3787 8.70711L16.2071 5.87868C15.6445 5.31607 14.8814 5 14.0858 5V9ZM9.91421 9H14.0858V5H9.91421V9ZM10.6213 8.70711C10.4338 8.89464 10.1794 9 9.91421 9V5C9.11857 5 8.3555 5.31607 7.79289 5.87868L10.6213 8.70711ZM7.70711 11.6213L10.6213 8.70711L7.79289 5.87868L4.87868 8.79289L7.70711 11.6213ZM6 19C6 19.5523 5.55228 20 5 20V16C3.34315 16 2 17.3431 2 19H6ZM6 20V19H2V20H6ZM5 19C5.55229 19 6 19.4477 6 20H2C2 21.6569 3.34315 23 5 23V19ZM19 19H5V23H19V19ZM18 20C18 19.4477 18.4477 19 19 19V23C20.6569 23 22 21.6569 22 20H18ZM18 19V20H22V19H18ZM19 20C18.4477 20 18 19.5523 18 19H22C22 17.3431 20.6569 16 19 16V20ZM5 20H19V16H5V20Z" fill="#CCCCCC" mask="url(#path-1-inside-1_1296_23553)"/>
<path d="M12 5V3" stroke="#CCCCCC" stroke-width="2" stroke-linecap="round"/>
<path d="M17.5 7.5L19.5 5.5" stroke="#CCCCCC" stroke-width="2" stroke-linecap="round"/>
<path d="M6.5 7.5L4.5 5.5" stroke="#CCCCCC" stroke-width="2" stroke-linecap="round"/>
</svg>
