<svg width="24" height="24" viewBox="0 0 24 24" fill="none" xmlns="http://www.w3.org/2000/svg">
<path d="M11.5 3.28868C11.8094 3.11004 12.1906 3.11004 12.5 3.28868L14.9641 4.71132C15.2735 4.88996 15.4641 5.22008 15.4641 5.57735V8.42265C15.4641 8.77992 15.2735 9.11004 14.9641 9.28868L12.5 10.7113C12.1906 10.89 11.8094 10.89 11.5 10.7113L9.0359 9.28868C8.7265 9.11004 8.5359 8.77992 8.5359 8.42265V5.57735C8.5359 5.22008 8.7265 4.88996 9.0359 4.71132L11.5 3.28868Z" fill="black"/>
<path d="M10.8182 12.5065C11.5729 12.183 12.4271 12.183 13.1818 12.5065L18.3939 14.7403C18.7616 14.8978 19 15.2594 19 15.6594V20C19 20.5523 18.5523 21 18 21H12.0002H6C5.44772 21 5 20.5523 5 20V15.6594C5 15.2594 5.2384 14.8978 5.60608 14.7403L10.8182 12.5065Z" fill="black"/>
</svg>
