<svg width="24" height="24" viewBox="0 0 24 24" fill="none" xmlns="http://www.w3.org/2000/svg">
<g id="place icon">
<path id="Subtract" fill-rule="evenodd" clip-rule="evenodd" d="M12.5005 2.28827C12.1911 2.10964 11.8099 2.10964 11.5005 2.28827L5.57227 5.71092C5.26286 5.88955 5.07227 6.21968 5.07227 6.57695V13.6437C5.07227 13.8739 5.15169 14.097 5.29713 14.2755L11.2254 21.5486C11.6255 22.0395 12.3755 22.0395 12.7756 21.5486L18.7038 14.2755C18.8492 14.097 18.9287 13.8739 18.9287 13.6437V6.57695C18.9287 6.21968 18.7381 5.88955 18.4287 5.71092L12.5005 2.28827ZM12.5 7.28827C12.1906 7.10964 11.8094 7.10964 11.5 7.28827L9.90192 8.21092C9.59252 8.38955 9.40192 8.71968 9.40192 9.07695V10.9222C9.40192 11.2795 9.59252 11.6096 9.90192 11.7883L11.5 12.7109C11.8094 12.8896 12.1906 12.8896 12.5 12.7109L14.0981 11.7883C14.4075 11.6096 14.5981 11.2795 14.5981 10.9222V9.07695C14.5981 8.71968 14.4075 8.38955 14.0981 8.21092L12.5 7.28827Z" fill="black"/>
</g>
</svg>
