<svg width="25" height="24" viewBox="0 0 25 24" fill="none" xmlns="http://www.w3.org/2000/svg">
<g id="place icon">
<path id="Polygon 2" d="M12.1675 3.1547L18.0957 6.57735V13.6441L12.1675 20.9172L6.23926 13.6441L6.23926 6.57735L12.1675 3.1547Z" stroke="#CCCCCC" stroke-width="2" stroke-linejoin="round"/>
<path id="Polygon 3" d="M11.667 7.28868C11.9764 7.11004 12.3576 7.11004 12.667 7.28868L14.2651 8.21132C14.5745 8.38996 14.7651 8.72008 14.7651 9.07735V10.9226C14.7651 11.2799 14.5745 11.61 14.2651 11.7887L12.667 12.7113C12.3576 12.89 11.9764 12.89 11.667 12.7113L10.0689 11.7887C9.75951 11.61 9.56892 11.2799 9.56892 10.9226V9.07735C9.56892 8.72008 9.75951 8.38996 10.0689 8.21132L11.667 7.28868Z" fill="#CCCCCC"/>
</g>
</svg>
