<svg width="24" height="24" viewBox="0 0 24 24" fill="none" xmlns="http://www.w3.org/2000/svg">
<path d="M12.0005 3.1547L17.9287 6.57735V13.6441L12.0005 20.9172L6.07227 13.6441L6.07227 6.57735L12.0005 3.1547Z" stroke="black" stroke-width="2" stroke-linejoin="round"/>
<path d="M11.5 7.28868C11.8094 7.11004 12.1906 7.11004 12.5 7.28868L14.0981 8.21132C14.4075 8.38996 14.5981 8.72008 14.5981 9.07735V10.9226C14.5981 11.2799 14.4075 11.61 14.0981 11.7887L12.5 12.7113C12.1906 12.89 11.8094 12.89 11.5 12.7113L9.90192 11.7887C9.59252 11.61 9.40192 11.2799 9.40192 10.9226V9.07735C9.40192 8.72008 9.59252 8.38996 9.90192 8.21132L11.5 7.28868Z" fill="black"/>
</svg>
