<svg width="21" height="18" viewBox="0 0 21 18" fill="none" xmlns="http://www.w3.org/2000/svg">
<g id="Group 238963">
<path id="Vector 1160" d="M3.5 17C3.5 17.5523 3.94772 18 4.5 18C5.05228 18 5.5 17.5523 5.5 17H3.5ZM5.5 17V11H3.5V17H5.5Z" fill="#CCCCCC"/>
<path id="Rectangle 34624751" d="M1.5 7.30278L3.03518 5H6.19722C6.59207 5 6.97809 4.88312 7.30662 4.6641L11.5 1.86852V14.1315L7.30662 11.3359C6.97809 11.1169 6.59208 11 6.19722 11H3.03518L1.5 8.69722L1.5 7.30278Z" stroke="#CCCCCC" stroke-width="2" stroke-linejoin="round"/>
<path id="Vector 1161" d="M15.5 3L17.5 1" stroke="#CCCCCC" stroke-width="2" stroke-linecap="round" stroke-linejoin="round"/>
<path id="Vector 1162" d="M15.5 13L17.5 15" stroke="#CCCCCC" stroke-width="2" stroke-linecap="round" stroke-linejoin="round"/>
<path id="Vector 1163" d="M19.5 8H16.5" stroke="#CCCCCC" stroke-width="2" stroke-linecap="round" stroke-linejoin="round"/>
</g>
</svg>
