<svg width="21" height="12" viewBox="0 0 21 12" fill="none" xmlns="http://www.w3.org/2000/svg">
<g id="Group 238991">
<path id="Subtract" fill-rule="evenodd" clip-rule="evenodd" d="M2.17551 1.88086L0.217532 10.0002L0.0290072 10.7591C-0.127688 11.3899 0.349556 12.0002 0.999511 12.0002H6.17978L4.38706 10.1961C4.25972 10.0679 4.16947 9.90763 4.12591 9.73229L2.17551 1.88086Z" fill="#CCCCCC"/>
<path id="Subtract_2" fill-rule="evenodd" clip-rule="evenodd" d="M3.97998 0C3.33002 0 2.85278 0.610303 3.00948 1.24109L5.11875 9.73207C5.16231 9.90741 5.25255 10.0677 5.3799 10.1958L6.87934 11.7049C7.06705 11.8938 7.32237 12 7.58869 12H19.0914C19.4072 12 19.7045 11.8508 19.8932 11.5976L20.801 10.3794C20.98 10.1392 21.0419 9.83147 20.9697 9.54077L18.7881 0.758914C18.6774 0.313041 18.2771 0 17.8176 0H3.97998ZM15.0843 4.52556C15.3727 4.27016 15.4008 3.82784 15.147 3.53762C14.8932 3.24739 14.4537 3.21916 14.1653 3.47456L11.2374 6.06761L10.1161 5.07456C9.82768 4.81916 9.38817 4.84739 9.1344 5.13762C8.88062 5.42784 8.90867 5.87016 9.19706 6.12556L10.7779 7.52556C11.0406 7.75822 11.4342 7.75822 11.6969 7.52556L15.0843 4.52556Z" fill="black"/>
</g>
</svg>
