<svg width="24" height="24" viewBox="0 0 24 24" fill="none" xmlns="http://www.w3.org/2000/svg">
<g id="Edit icon" clip-path="url(#clip0_1298_17534)">
<path id="Rectangle 34624835" d="M15.0883 3.29574C15.1751 3.20895 15.2771 3.13887 15.3893 3.08902L17.3111 2.23489C17.5971 2.10776 17.9262 2.12191 18.2003 2.27313L20.2464 3.40201C20.4116 3.49318 20.5477 3.62926 20.6389 3.79451L21.7678 5.8406C21.919 6.11468 21.9331 6.44376 21.806 6.72982L20.9519 8.65163C20.902 8.76378 20.8319 8.8658 20.7452 8.95258L9.63768 20.0605C9.51738 20.1809 9.36836 20.2685 9.20474 20.3151L3.27011 22.0071C2.51612 22.2221 1.81928 21.5253 2.03425 20.7713L3.72626 14.8366C3.7729 14.673 3.86052 14.524 3.98081 14.4037L15.0883 3.29574Z" fill="#CCCCCC"/>
</g>
<defs>
<clipPath id="clip0_1298_17534">
<rect width="24" height="24" fill="white"/>
</clipPath>
</defs>
</svg>
