<svg width="16" height="16" viewBox="0 0 16 16" fill="none" xmlns="http://www.w3.org/2000/svg">
<g id="Globe" clip-path="url(#clip0_699_3250)">
<path id="Icon" d="M14.6666 7.99967C14.6666 11.6816 11.6818 14.6663 7.99992 14.6663M14.6666 7.99967C14.6666 4.31778 11.6818 1.33301 7.99992 1.33301M14.6666 7.99967H1.33325M7.99992 14.6663C4.31802 14.6663 1.33325 11.6816 1.33325 7.99967M7.99992 14.6663C9.66744 12.8408 10.6151 10.4717 10.6666 7.99967C10.6151 5.5277 9.66744 3.15858 7.99992 1.33301M7.99992 14.6663C6.3324 12.8408 5.38475 10.4717 5.33325 7.99967C5.38475 5.5277 6.3324 3.15858 7.99992 1.33301M1.33325 7.99967C1.33325 4.31778 4.31802 1.33301 7.99992 1.33301" stroke="#CCCCCC" stroke-width="1.33333" stroke-linecap="round" stroke-linejoin="round"/>
</g>
<defs>
<clipPath id="clip0_699_3250">
<rect width="16" height="16" fill="white"/>
</clipPath>
</defs>
</svg>
