<svg width="24" height="24" viewBox="0 0 24 24" fill="none" xmlns="http://www.w3.org/2000/svg">
<g id="Phone icon">
<path id="Vector 1166" d="M9.11566 17.8219L8.89312 17.6398C7.96668 16.8818 7.11817 16.0333 6.36017 15.1069L6.17809 14.8843C4.09902 12.3432 2.75456 9.2819 2.29023 6.03164L2.07071 4.49497C2.0262 4.18338 2.13099 3.86901 2.35355 3.64645L3.70711 2.29289C3.89464 2.10536 4.149 2 4.41421 2H7.58579C7.851 2 8.10536 2.10536 8.29289 2.29289L8.78591 2.78591C8.92551 2.92551 9.02066 3.10331 9.05938 3.2969L9.89504 7.47521C9.96061 7.80307 9.85799 8.14201 9.62157 8.37843L8.29122 9.70878C8.12317 9.87683 8.10124 10.1417 8.23938 10.3351C9.73614 12.4306 11.5694 14.2639 13.6649 15.7606C13.8583 15.8988 14.1232 15.8768 14.2912 15.7088L15.6216 14.3784C15.858 14.142 16.1969 14.0394 16.5248 14.105L20.7031 14.9406C20.8967 14.9793 21.0745 15.0745 21.2141 15.2141L21.7071 15.7071C21.8946 15.8946 22 16.149 22 16.4142V19.5858C22 19.851 21.8946 20.1054 21.7071 20.2929L20.3536 21.6464C20.131 21.869 19.8166 21.9738 19.505 21.9293L17.9684 21.7098C14.7181 21.2454 11.6568 19.901 9.11566 17.8219Z" fill="black"/>
</g>
</svg>
