<svg width="24" height="24" viewBox="0 0 24 24" fill="none" xmlns="http://www.w3.org/2000/svg">
<g id="Send Icon">
<path id="Subtract" fill-rule="evenodd" clip-rule="evenodd" d="M13.5787 20.2929L11.8124 18.5266C11.665 18.3792 11.5674 18.1895 11.5331 17.9839L10.9622 14.5585C10.9146 14.2728 10.9932 13.9805 11.1776 13.7572L16.2483 7.61902C16.4028 7.43208 16.1537 7.18302 15.9668 7.33745L9.82855 12.4081C9.60526 12.5926 9.31296 12.6712 9.02727 12.6236L5.60189 12.0527C5.3963 12.0184 5.20656 11.9208 5.05918 11.7734L3.29289 10.0071C2.90237 9.61658 2.90237 8.98342 3.29289 8.59289L5.09586 6.78992C5.22027 6.66551 5.37531 6.57613 5.54531 6.53079L18.6592 3.03376C18.7432 3.01135 18.8298 3 18.9168 3H19.5858C20.1381 3 20.5858 3.44772 20.5858 4V4.66896C20.5858 4.75595 20.5744 4.84257 20.552 4.92662L17.055 18.0405C17.0097 18.2105 16.9203 18.3655 16.7959 18.4899L14.9929 20.2929C14.6024 20.6834 13.9692 20.6834 13.5787 20.2929Z" fill="black"/>
</g>
</svg>
