<svg width="25" height="24" viewBox="0 0 25 24" fill="none" xmlns="http://www.w3.org/2000/svg">
<g id="Send Icon">
<path id="Subtract" fill-rule="evenodd" clip-rule="evenodd" d="M14.0787 20.2929L12.3124 18.5266C12.165 18.3792 12.0674 18.1895 12.0331 17.9839L11.4622 14.5585C11.4146 14.2728 11.4932 13.9805 11.6776 13.7572L16.7483 7.61902C16.9028 7.43208 16.6537 7.18302 16.4668 7.33745L10.3286 12.4081C10.1053 12.5926 9.81296 12.6712 9.52727 12.6236L6.10189 12.0527C5.8963 12.0184 5.70656 11.9208 5.55918 11.7734L3.79289 10.0071C3.40237 9.61658 3.40237 8.98342 3.79289 8.59289L5.59586 6.78992C5.72027 6.66551 5.87531 6.57613 6.04531 6.53079L19.1592 3.03376C19.2432 3.01135 19.3298 3 19.4168 3H20.0858C20.6381 3 21.0858 3.44772 21.0858 4V4.66896C21.0858 4.75595 21.0744 4.84257 21.052 4.92662L17.555 18.0405C17.5097 18.2105 17.4203 18.3655 17.2959 18.4899L15.4929 20.2929C15.1024 20.6834 14.4692 20.6834 14.0787 20.2929Z" fill="white"/>
</g>
</svg>
