<svg width="133" height="45" viewBox="0 0 133 45" fill="none" xmlns="http://www.w3.org/2000/svg">
<path d="M14.1133 3.68509C15.6314 1.97718 17.8074 1 20.0925 1H112.907C115.193 1 117.369 1.97718 118.887 3.68509L127.776 13.6851C130.47 16.7162 130.47 21.2838 127.776 24.3149L118.887 34.3149C117.369 36.0228 115.193 37 112.907 37H72.6085C71.9189 37 71.278 37.3552 70.9125 37.94L67.348 43.6432C66.9563 44.2699 66.0437 44.2699 65.652 43.6432L62.0875 37.94C61.722 37.3552 61.0811 37 60.3915 37H20.0925C17.8074 37 15.6314 36.0228 14.1133 34.3149L5.22436 24.3149C2.53006 21.2838 2.53006 16.7162 5.22437 13.6851L14.1133 3.68509Z" fill="#F4F4F4" stroke="#EEEEEE"/>
<path d="M31.6875 13.4961V16.6016H33.2109V17.5273H31.6875V21.125H30.5625V13.4961H31.6875ZM23.4258 19.0859C25.8867 18.3477 27.4102 16.9473 27.627 15.2188H23.8711V14.293H28.8398C28.8398 17.0469 26.9648 19.0449 23.8945 19.9766L23.4258 19.0859ZM25.0195 23.7734V20.3398H26.1445V22.8711H32.1211V23.7734H25.0195ZM42.5625 13.4961V21.2891H41.4492V18.3945H39.8086V17.457H41.4492V16.3555H39.8086V15.4414H41.4492V13.4961H42.5625ZM33.8203 18.8633C34.2129 18.8633 34.6465 18.8574 35.0977 18.8574V15.2188H34.1133V14.3164H39.6914V15.2188H38.6836V18.7344C39.1289 18.6992 39.5566 18.6641 39.9727 18.6172L40.0195 19.4375C38.0098 19.7539 35.6426 19.7949 33.9609 19.8008L33.8203 18.8633ZM35.7188 23.7734V20.6562H36.8438V22.8711H42.832V23.7734H35.7188ZM36.1758 18.8398C36.6504 18.8281 37.1309 18.8105 37.6172 18.793V15.2188H36.1758V18.8398ZM52.3594 13.4961V17.75H54.0469V18.6758H52.3594V23.9961H51.2578V13.4961H52.3594ZM44.1211 16.0508V15.1367H46.7109V13.6367H47.8242V15.1367H50.3438V16.0508H44.1211ZM44.6602 19.2617C44.6602 17.832 45.7617 16.8242 47.2734 16.8242C48.7793 16.8242 49.8809 17.832 49.8867 19.2617C49.8809 20.7031 48.7793 21.7051 47.2734 21.7109C45.7617 21.7051 44.6602 20.7031 44.6602 19.2617ZM45.7266 19.2617C45.7207 20.1758 46.377 20.7852 47.2734 20.7734C48.1641 20.7852 48.8145 20.1758 48.8203 19.2617C48.8145 18.3652 48.1641 17.7441 47.2734 17.7383C46.377 17.7441 45.7207 18.3652 45.7266 19.2617ZM63.5742 13.4961V23.9961H62.5195V13.4961H63.5742ZM54.5156 20.9609C56.7422 19.6367 57.8086 17.873 58.002 15.7109H55.0078V14.7969H59.1094C59.1035 15.8223 58.9629 16.8008 58.6406 17.7148H60.3047V13.7656H61.3594V23.4805H60.3047V18.6055H58.2539C57.6328 19.8242 56.6309 20.8906 55.1484 21.7578L54.5156 20.9609ZM71.707 16.168C71.6953 18.084 72.8555 20.0176 74.4844 20.7383L73.8164 21.6172C72.6094 21.043 71.6543 19.8652 71.1621 18.4297C70.6758 19.9707 69.709 21.2363 68.4492 21.8516L67.7695 20.9141C69.4219 20.1816 70.582 18.1719 70.582 16.168V14.375H71.707V16.168ZM75.4336 24.0195V13.4961H76.5469V24.0195H75.4336ZM81.8906 15.3828C81.8848 16.7246 82.8164 17.9961 84.4219 18.5352L83.8594 19.4023C82.6699 18.9922 81.7969 18.1719 81.3398 17.1406C80.8828 18.2715 79.9688 19.168 78.7383 19.6016L78.1406 18.7344C79.7812 18.1777 80.7715 16.8184 80.7773 15.3711V15.0898H78.4688V14.1875H84.1523V15.0898H81.8906V15.3828ZM79.5352 21.2422V20.3398H86.4727V23.9961H85.3594V21.2422H79.5352ZM85.3594 19.8242V13.4961H86.4727V16.1914H87.9961V17.1289H86.4727V19.8242H85.3594ZM96.7734 13.4961V17.75H98.4609V18.6758H96.7734V23.9961H95.6719V13.4961H96.7734ZM88.5352 16.0508V15.1367H91.125V13.6367H92.2383V15.1367H94.7578V16.0508H88.5352ZM89.0742 19.2617C89.0742 17.832 90.1758 16.8242 91.6875 16.8242C93.1934 16.8242 94.2949 17.832 94.3008 19.2617C94.2949 20.7031 93.1934 21.7051 91.6875 21.7109C90.1758 21.7051 89.0742 20.7031 89.0742 19.2617ZM90.1406 19.2617C90.1348 20.1758 90.791 20.7852 91.6875 20.7734C92.5781 20.7852 93.2285 20.1758 93.2344 19.2617C93.2285 18.3652 92.5781 17.7441 91.6875 17.7383C90.791 17.7441 90.1348 18.3652 90.1406 19.2617ZM107.695 13.4961V23.9961H106.57V13.4961H107.695ZM99.0703 21.1836C101.859 19.8535 103.225 17.9609 103.441 15.5117H99.5742V14.6211H104.566C104.566 17.6973 103.26 20.3574 99.6562 22.0859L99.0703 21.1836Z" fill="black"/>
</svg>
